<svg width="739" height="276" viewBox="0 0 739 276" fill="none" xmlns="http://www.w3.org/2000/svg">
<g filter="url(#filter0_d_829_3721)">
<rect x="66" y="61" width="608" height="154" rx="20" fill="white"/>
</g>
<rect width="1.66667" height="11.6925" rx="0.833333" transform="matrix(-0.706993 -0.707221 -0.706993 0.707221 127.611 100.179)" fill="#1B1B1B"/>
<rect width="1.66667" height="7.06019" rx="0.833333" transform="matrix(0.706993 -0.707221 0.706993 0.707221 114.334 103.461)" fill="#1B1B1B"/>
<path d="M149.422 104.457V107.484C151.023 107.396 152.645 107.26 154.168 107.035L154.305 108.402C150.34 109.125 146.102 109.164 142.977 109.164L142.742 107.641C144.148 107.631 145.809 107.621 147.566 107.562V104.457H149.422ZM153.348 97.3867V98.8906H149.422C149.52 100.941 151.18 102.719 153.797 103.422L152.938 104.867C150.848 104.271 149.285 103.002 148.504 101.332C147.732 103.09 146.199 104.418 144.09 105.023L143.211 103.617C145.818 102.875 147.459 101.039 147.547 98.8906H143.68V97.3867H147.566V95.2969H149.422V97.3867H153.348ZM157.117 95.1602V112.699H155.262V95.1602H157.117ZM174.949 95.1602V112.66H173.172V103.617H170.906V111.762H169.207V95.5117H170.906V102.094H173.172V95.1602H174.949ZM167.078 97.2695V98.7734H162.371V106.879C164.52 106.859 166.141 106.762 168.016 106.41L168.152 107.934C166.043 108.363 164.246 108.441 161.688 108.461H160.516V97.2695H167.078ZM187.82 111.195C185.203 111.176 182.469 109.633 182.469 104.398C182.469 99.4766 184.598 96.6641 187.996 96.6641C190.594 96.6641 192.41 98.2852 192.742 100.531H190.613C190.34 99.3789 189.422 98.5391 187.996 98.5391C185.809 98.5391 184.539 100.453 184.539 103.637H184.695C185.457 102.445 186.785 101.723 188.328 101.723C190.848 101.723 192.879 103.656 192.879 106.371C192.879 109.105 190.867 111.215 187.82 111.195ZM187.801 109.398C189.52 109.398 190.789 108.07 190.789 106.41C190.789 104.789 189.559 103.48 187.859 103.48C186.121 103.48 184.812 104.848 184.793 106.43C184.812 107.992 186.062 109.398 187.801 109.398ZM200.086 111.195C196.805 111.195 194.891 108.559 194.891 103.93C194.891 99.3398 196.844 96.6641 200.086 96.6641C203.328 96.6641 205.281 99.3398 205.281 103.93C205.281 108.559 203.348 111.195 200.086 111.195ZM200.086 109.34C202 109.34 203.133 107.465 203.133 103.93C203.133 100.414 201.98 98.4805 200.086 98.4805C198.191 98.4805 197.039 100.414 197.039 103.93C197.039 107.465 198.172 109.34 200.086 109.34ZM222.898 104.32V105.805H215.945V109.027H214.109V105.805H206.883V104.32H222.898ZM221.121 110.785V112.289H208.875V107.504H210.711V110.785H221.121ZM210.828 95.707V97.8359H218.934V95.707H220.789V102.777H208.992V95.707H210.828ZM210.828 101.293H218.934V99.2227H210.828V101.293ZM238.094 95.1602V102.27H240.633V103.793H238.094V112.66H236.238V95.1602H238.094ZM229.461 97.0352C229.461 101.41 228.66 105.395 225.496 108.773L224.031 107.738C226.59 105.082 227.518 102.064 227.703 98.5586H224.656V97.0352H229.461ZM234.285 97.0352C234.285 101.469 233.738 106.117 230.516 109.926L229.031 108.91C231.629 105.873 232.41 102.299 232.547 98.5586H230.027V97.0352H234.285ZM247.918 100.316C247.918 103.246 249.832 106.273 252.527 107.426L251.512 108.871C249.451 107.963 247.811 106.039 247 103.695C246.189 106.195 244.539 108.324 242.508 109.32L241.434 107.855C244.07 106.625 246.023 103.324 246.043 100.316V98.4609H242.039V96.918H251.902V98.4609H247.918V100.316ZM255.965 95.1602V112.66H254.109V95.1602H255.965ZM277.801 99.9062V101.41H272.547V103.617H279.617V105.102H263.641V103.617H270.691V101.41H265.75V95.5117H267.586V99.9062H277.801ZM277.645 106.762V112.66H275.77V108.266H265.477V106.762H277.645ZM294.637 95.1602V102.484H297.273V104.047H294.637V112.66H292.781V95.1602H294.637ZM280.711 107.895C282.088 107.895 283.689 107.895 285.359 107.836V106.059C283.387 105.785 282.098 104.594 282.117 102.895C282.098 100.922 283.797 99.6133 286.297 99.6133C288.777 99.6133 290.496 100.922 290.516 102.895C290.496 104.594 289.188 105.795 287.215 106.078V107.758C288.768 107.699 290.33 107.572 291.785 107.367L291.902 108.734C288.113 109.418 284.012 109.438 281.004 109.438L280.711 107.895ZM291.531 97.2305V98.7148H281.043V97.2305H285.359V95.1992H287.215V97.2305H291.531ZM286.297 101.059C284.832 101.059 283.855 101.781 283.855 102.895C283.855 104.008 284.832 104.691 286.297 104.691C287.762 104.691 288.738 104.008 288.738 102.895C288.738 101.781 287.762 101.059 286.297 101.059ZM311.844 95.1602V102.133H314.559V103.676H311.844V112.641H309.988V95.1602H311.844ZM307.273 96.9961C307.254 102.055 305.027 106.566 299.266 109.418L298.23 107.973C302.615 105.785 304.998 102.621 305.379 98.5391H299.109V96.9961H307.273ZM334.012 95.1602V102.133H336.727V103.676H334.012V112.641H332.156V95.1602H334.012ZM329.441 96.9961C329.422 102.055 327.195 106.566 321.434 109.418L320.398 107.973C324.783 105.785 327.166 102.621 327.547 98.5391H321.277V96.9961H329.441ZM351.805 99.8867V101.391H339.793V95.4727H341.629V99.8867H351.805ZM353.641 103.246V104.77H337.664V103.246H353.641ZM345.633 106.195C349.402 106.195 351.668 107.348 351.668 109.379C351.668 111.43 349.402 112.582 345.633 112.582C341.844 112.582 339.559 111.43 339.559 109.379C339.559 107.348 341.844 106.195 345.633 106.195ZM345.633 107.641C342.957 107.66 341.434 108.246 341.434 109.379C341.434 110.492 342.957 111.156 345.633 111.156C348.27 111.156 349.812 110.492 349.812 109.379C349.812 108.246 348.27 107.66 345.633 107.641ZM363.602 98.0508V99.5547H354.91V98.0508H358.348V95.668H360.184V98.0508H363.602ZM359.266 100.609C361.492 100.609 363.055 102.27 363.074 104.633C363.055 107.016 361.492 108.695 359.266 108.695C357.078 108.695 355.457 107.016 355.477 104.633C355.457 102.27 357.078 100.609 359.266 100.609ZM359.266 102.152C357.996 102.152 357.117 103.188 357.117 104.633C357.117 106.117 357.996 107.113 359.266 107.113C360.516 107.113 361.434 106.117 361.434 104.633C361.434 103.188 360.516 102.152 359.266 102.152ZM369.93 95.1602V112.66H368.172V103.969H366.16V111.84H364.402V95.5508H366.16V102.445H368.172V95.1602H369.93ZM388.25 108.93V110.473H372.234V108.93H376.062V104.359C374.627 103.568 373.758 102.309 373.758 100.746C373.758 97.9922 376.453 96.1758 380.203 96.1758C383.973 96.1758 386.668 97.9922 386.668 100.746C386.668 102.289 385.828 103.529 384.422 104.32V108.93H388.25ZM380.203 97.6602C377.449 97.6602 375.555 98.8516 375.555 100.746C375.555 102.621 377.449 103.852 380.203 103.852C382.938 103.852 384.871 102.621 384.871 100.746C384.871 98.8516 382.938 97.6602 380.203 97.6602ZM377.898 108.93H382.547V105.023C381.834 105.209 381.043 105.297 380.203 105.297C379.383 105.297 378.602 105.209 377.898 105.043V108.93Z" fill="#1B1B1B"/>
<rect width="1.66667" height="11.6925" rx="0.833333" transform="matrix(-0.706993 -0.707221 -0.706993 0.707221 127.611 134.179)" fill="#1B1B1B"/>
<rect width="1.66667" height="7.06019" rx="0.833333" transform="matrix(0.706993 -0.707221 0.706993 0.707221 114.334 137.461)" fill="#1B1B1B"/>
<path d="M150.613 129.531C154.461 129.531 156.863 130.781 156.863 132.891C156.863 134.961 154.461 136.191 150.613 136.191C146.785 136.191 144.363 134.961 144.363 132.891C144.363 130.781 146.785 129.531 150.613 129.531ZM150.613 130.996C147.918 130.996 146.258 131.68 146.277 132.891C146.258 134.062 147.918 134.727 150.613 134.746C153.289 134.727 154.949 134.062 154.949 132.891C154.949 131.68 153.289 130.996 150.613 130.996ZM156.648 140.605V146.445H144.559V140.605H156.648ZM146.395 142.09V144.941H154.852V142.09H146.395ZM158.602 137.539V139.043H142.645V137.539H158.602ZM166.141 131.777C166.141 134.238 167.723 136.426 170.379 137.285L169.363 138.73C167.439 138.037 166.023 136.689 165.262 134.941C164.5 136.943 162.977 138.496 160.867 139.258L159.871 137.773C162.664 136.816 164.285 134.492 164.305 131.855V130.137H166.141V131.777ZM174.52 129.16V139.492H172.664V134.238H168.973V132.715H172.664V129.16H174.52ZM168.66 139.98C172.332 139.98 174.578 141.191 174.578 143.32C174.578 145.43 172.332 146.641 168.66 146.621C164.988 146.641 162.723 145.43 162.742 143.32C162.723 141.191 164.988 139.98 168.66 139.98ZM168.66 141.426C166.102 141.426 164.578 142.109 164.578 143.32C164.578 144.492 166.102 145.156 168.66 145.156C171.219 145.156 172.742 144.492 172.742 143.32C172.742 142.109 171.219 141.426 168.66 141.426ZM193.172 138.301V139.785H177.215V138.301H193.172ZM191.375 144.785V146.289H179.227V141.211H181.102V144.785H191.375ZM185.184 129.746C188.973 129.727 191.434 131.055 191.434 133.242C191.434 135.449 188.973 136.777 185.184 136.797C181.375 136.777 178.934 135.449 178.934 133.242C178.934 131.055 181.375 129.727 185.184 129.746ZM185.184 131.23C182.508 131.23 180.828 131.992 180.848 133.242C180.828 134.531 182.508 135.273 185.184 135.273C187.859 135.273 189.52 134.531 189.52 133.242C189.52 131.992 187.859 131.23 185.184 131.23ZM213.543 133.906V135.41H208.289V137.617H215.359V139.102H199.383V137.617H206.434V135.41H201.492V129.512H203.328V133.906H213.543ZM213.387 140.762V146.66H211.512V142.266H201.219V140.762H213.387ZM224.637 129.531C228.484 129.531 230.887 130.781 230.887 132.891C230.887 134.961 228.484 136.191 224.637 136.191C220.809 136.191 218.387 134.961 218.387 132.891C218.387 130.781 220.809 129.531 224.637 129.531ZM224.637 130.996C221.941 130.996 220.281 131.68 220.301 132.891C220.281 134.062 221.941 134.727 224.637 134.746C227.312 134.727 228.973 134.062 228.973 132.891C228.973 131.68 227.312 130.996 224.637 130.996ZM230.672 140.605V146.445H218.582V140.605H230.672ZM220.418 142.09V144.941H228.875V142.09H220.418ZM232.625 137.539V139.043H216.668V137.539H232.625ZM244.383 136.562V138.086H240.691V141.328C242.312 141.25 243.943 141.143 245.477 140.977L245.613 142.344C241.766 142.93 237.605 142.969 234.285 142.988L234.051 141.445C235.525 141.445 237.156 141.436 238.836 141.387V138.086H235.32V130.781H244.305V132.285H237.156V136.562H244.383ZM248.426 129.16V146.699H246.57V129.16H248.426ZM257.684 134.316C257.684 137.246 259.598 140.273 262.293 141.426L261.277 142.871C259.217 141.963 257.576 140.039 256.766 137.695C255.955 140.195 254.305 142.324 252.273 143.32L251.199 141.855C253.836 140.625 255.789 137.324 255.809 134.316V132.461H251.805V130.918H261.668V132.461H257.684V134.316ZM265.73 129.16V146.66H263.875V129.16H265.73ZM278.27 130.098C280.926 130.098 282.859 131.797 282.859 134.16C282.859 136.543 280.926 138.223 278.27 138.223C275.633 138.223 273.66 136.543 273.68 134.16C273.66 131.797 275.633 130.098 278.27 130.098ZM278.27 131.641C276.688 131.641 275.477 132.676 275.477 134.16C275.477 135.645 276.688 136.699 278.27 136.699C279.871 136.699 281.062 135.645 281.062 134.16C281.062 132.676 279.871 131.641 278.27 131.641ZM287.156 129.16V132.988H289.695V134.531H287.156V137.871H285.301V129.16H287.156ZM276.98 139.688V144.668C278.006 144.619 279.188 144.473 280.301 144.102L280.574 145.566C278.953 146.113 277.371 146.191 276.062 146.191H275.164V139.688H276.98ZM288.797 139.746V141.172H279.969V139.746H283.504V138.32H285.32V139.746H288.797ZM284.383 141.68C286.316 141.68 287.684 142.656 287.684 144.18C287.684 145.684 286.316 146.641 284.383 146.621C282.41 146.641 281.062 145.684 281.082 144.18C281.062 142.656 282.41 141.68 284.383 141.68ZM284.383 143.008C283.406 143.008 282.723 143.457 282.723 144.18C282.723 144.883 283.406 145.332 284.383 145.332C285.34 145.332 286.023 144.883 286.023 144.18C286.023 143.457 285.34 143.008 284.383 143.008ZM295.379 130.469C297.996 130.469 299.852 132.852 299.871 136.602C299.852 140.371 297.996 142.754 295.379 142.754C292.762 142.754 290.887 140.371 290.906 136.602C290.887 132.852 292.762 130.469 295.379 130.469ZM295.379 132.129C293.777 132.129 292.684 133.848 292.684 136.602C292.684 139.375 293.777 141.094 295.379 141.094C297 141.094 298.094 139.375 298.094 136.602C298.094 133.848 297 132.129 295.379 132.129ZM304.324 129.16V136.016H307.137V137.578H304.324V146.66H302.469V129.16H304.324ZM323.992 142.93V144.473H307.977V142.93H311.805V138.359C310.369 137.568 309.5 136.309 309.5 134.746C309.5 131.992 312.195 130.176 315.945 130.176C319.715 130.176 322.41 131.992 322.41 134.746C322.41 136.289 321.57 137.529 320.164 138.32V142.93H323.992ZM315.945 131.66C313.191 131.66 311.297 132.852 311.297 134.746C311.297 136.621 313.191 137.852 315.945 137.852C318.68 137.852 320.613 136.621 320.613 134.746C320.613 132.852 318.68 131.66 315.945 131.66ZM313.641 142.93H318.289V139.023C317.576 139.209 316.785 139.297 315.945 139.297C315.125 139.297 314.344 139.209 313.641 139.043V142.93Z" fill="#1B1B1B"/>
<rect width="1.66667" height="11.6925" rx="0.833333" transform="matrix(-0.706993 -0.707221 -0.706993 0.707221 127.611 168.179)" fill="#1B1B1B"/>
<rect width="1.66667" height="7.06019" rx="0.833333" transform="matrix(0.706993 -0.707221 0.706993 0.707221 114.334 171.461)" fill="#1B1B1B"/>
<path d="M157.137 163.16V180.699H155.281V163.16H157.137ZM147.781 164.469C150.379 164.469 152.293 166.852 152.293 170.602C152.293 174.371 150.379 176.754 147.781 176.754C145.145 176.754 143.25 174.371 143.25 170.602C143.25 166.852 145.145 164.469 147.781 164.469ZM147.781 166.129C146.16 166.129 145.047 167.848 145.047 170.602C145.047 173.375 146.16 175.094 147.781 175.094C149.383 175.094 150.496 173.375 150.496 170.602C150.496 167.848 149.383 166.129 147.781 166.129ZM175.926 173.043V174.566H172V180.758H170.145V174.566H165.75V180.758H163.895V174.566H159.91V173.043H175.926ZM168.895 164.703C168.875 167.047 171.766 169.273 175.164 169.742L174.422 171.266C171.59 170.777 169.07 169.273 167.938 167.203C166.785 169.283 164.285 170.777 161.434 171.266L160.672 169.742C164.09 169.254 166.941 167.066 166.961 164.703V163.746H168.895V164.703ZM196.707 163.16V180.699H194.852V170.973H191.238V169.449H194.852V163.16H196.707ZM188.348 168.082C188.348 171.051 190.203 174.234 192.898 175.426L191.785 176.91C189.764 175.934 188.201 173.893 187.43 171.5C186.648 174.049 185.057 176.227 183.035 177.262L181.902 175.816C184.578 174.547 186.453 171.227 186.473 168.082V166.441H182.605V164.918H192.234V166.441H188.348V168.082ZM205.496 166.383C205.496 168.609 207.039 170.641 209.695 171.48L208.816 172.926C206.824 172.291 205.369 170.973 204.598 169.312C203.836 171.227 202.303 172.74 200.203 173.473L199.246 171.988C201.98 171.09 203.621 168.824 203.641 166.402V165.914H199.793V164.41H209.266V165.914H205.496V166.383ZM213.133 163.16V167.496H215.672V169.02H213.133V173.668H211.277V163.16H213.133ZM207.488 174.098C211.102 174.098 213.289 175.289 213.289 177.34C213.289 179.41 211.102 180.641 207.488 180.621C203.836 180.641 201.609 179.41 201.609 177.34C201.609 175.289 203.836 174.098 207.488 174.098ZM207.488 175.562C204.949 175.562 203.445 176.207 203.465 177.34C203.445 178.512 204.949 179.156 207.488 179.156C210.008 179.156 211.473 178.512 211.473 177.34C211.473 176.207 210.008 175.562 207.488 175.562ZM227.977 167.613C227.957 170.816 229.891 174.02 232.605 175.23L231.492 176.695C229.48 175.738 227.889 173.775 227.078 171.383C226.258 173.941 224.646 176.061 222.547 177.086L221.414 175.523C224.168 174.293 226.102 170.953 226.102 167.613V164.625H227.977V167.613ZM236.043 163.16V180.699H234.188V163.16H236.043ZM252.371 166.051V167.555H243.68V166.051H247.117V163.668H248.953V166.051H252.371ZM248.035 168.609C250.262 168.609 251.824 170.27 251.844 172.633C251.824 175.016 250.262 176.695 248.035 176.695C245.848 176.695 244.227 175.016 244.246 172.633C244.227 170.27 245.848 168.609 248.035 168.609ZM248.035 170.152C246.766 170.152 245.887 171.188 245.887 172.633C245.887 174.117 246.766 175.113 248.035 175.113C249.285 175.113 250.203 174.117 250.203 172.633C250.203 171.188 249.285 170.152 248.035 170.152ZM258.699 163.16V180.66H256.941V171.969H254.93V179.84H253.172V163.551H254.93V170.445H256.941V163.16H258.699ZM274.773 163.16V167.594H277.293V169.117H274.773V173.492H272.898V163.16H274.773ZM269.109 173.824C272.684 173.824 274.91 175.074 274.91 177.223C274.91 179.371 272.684 180.641 269.109 180.621C265.496 180.641 263.23 179.371 263.23 177.223C263.23 175.074 265.496 173.824 269.109 173.824ZM269.109 175.328C266.57 175.309 265.047 176.012 265.066 177.223C265.047 178.434 266.57 179.137 269.109 179.137C271.59 179.137 273.113 178.434 273.133 177.223C273.113 176.012 271.59 175.309 269.109 175.328ZM269.559 164.449V165.953H263.582V170.719C267.029 170.709 268.973 170.602 271.18 170.152L271.355 171.656C269.012 172.145 266.922 172.223 263.133 172.223H261.746V164.449H269.559ZM289.617 168.316C289.617 171.246 291.531 174.273 294.227 175.426L293.211 176.871C291.15 175.963 289.51 174.039 288.699 171.695C287.889 174.195 286.238 176.324 284.207 177.32L283.133 175.855C285.77 174.625 287.723 171.324 287.742 168.316V166.461H283.738V164.918H293.602V166.461H289.617V168.316ZM297.664 163.16V180.66H295.809V163.16H297.664ZM315.047 163.16V173.355H313.191V168.961H309.91V167.418H313.191V163.16H315.047ZM315.047 174.176V180.445H303.504V174.176H315.047ZM305.34 175.641V178.941H313.23V175.641H305.34ZM306.727 166.148C306.727 168.336 308.309 170.504 310.945 171.422L309.988 172.887C308.025 172.193 306.57 170.787 305.809 169.059C305.047 170.982 303.514 172.525 301.434 173.258L300.477 171.793C303.172 170.875 304.832 168.551 304.832 166.148V165.738H301.043V164.215H310.477V165.738H306.727V166.148ZM323.445 164.41C326.219 164.391 328.191 166.109 328.211 168.57C328.191 171.031 326.219 172.75 323.445 172.75C320.691 172.75 318.66 171.031 318.68 168.57C318.66 166.109 320.691 164.391 323.445 164.41ZM323.445 166.012C321.746 166.012 320.496 167.027 320.516 168.57C320.496 170.113 321.746 171.129 323.445 171.129C325.145 171.129 326.395 170.113 326.395 168.57C326.395 167.027 325.145 166.012 323.445 166.012ZM332.215 163.16V180.699H330.359V163.16H332.215ZM317.84 175.387C321.023 175.387 325.438 175.348 329.266 174.801L329.402 176.148C325.438 176.91 321.199 176.93 318.074 176.93L317.84 175.387ZM354.402 163.16V180.699H352.547V163.16H354.402ZM345.047 164.469C347.645 164.469 349.559 166.852 349.559 170.602C349.559 174.371 347.645 176.754 345.047 176.754C342.41 176.754 340.516 174.371 340.516 170.602C340.516 166.852 342.41 164.469 345.047 164.469ZM345.047 166.129C343.426 166.129 342.312 167.848 342.312 170.602C342.312 173.375 343.426 175.094 345.047 175.094C346.648 175.094 347.762 173.375 347.762 170.602C347.762 167.848 346.648 166.129 345.047 166.129ZM366.375 164.84V176.344H358.172V164.84H366.375ZM360.008 166.305V174.84H364.578V166.305H360.008ZM371.688 163.16V180.699H369.832V163.16H371.688ZM380.926 168.316C380.926 171.246 382.84 174.273 385.535 175.426L384.52 176.871C382.459 175.963 380.818 174.039 380.008 171.695C379.197 174.195 377.547 176.324 375.516 177.32L374.441 175.855C377.078 174.625 379.031 171.324 379.051 168.316V166.461H375.047V164.918H384.91V166.461H380.926V168.316ZM388.973 163.16V180.66H387.117V163.16H388.973ZM397.02 164.273C399.715 164.273 401.727 165.973 401.727 168.434C401.727 170.602 400.164 172.174 397.957 172.516V175.289C399.51 175.221 401.062 175.104 402.508 174.918L402.645 176.305C398.953 176.949 394.871 176.969 391.844 176.949L391.551 175.426C392.908 175.416 394.471 175.406 396.102 175.367V172.516C393.836 172.193 392.293 170.611 392.312 168.434C392.293 165.973 394.266 164.273 397.02 164.273ZM397.02 165.836C395.34 165.855 394.109 166.871 394.109 168.434C394.109 169.996 395.34 171.031 397.02 171.012C398.68 171.031 399.891 169.996 399.91 168.434C399.891 166.871 398.68 165.855 397.02 165.836ZM405.418 163.16V170.27H408.113V171.832H405.418V180.66H403.562V163.16H405.418ZM427.684 163.18V167.32H430.223V168.824H427.684V173.023H425.828V163.18H427.684ZM428.094 173.902V175.387H425.77V178.883H428.328V180.387H416.219V178.883H418.738V175.387H416.355V173.902H428.094ZM418.855 164.137C421.531 164.137 423.504 165.836 423.523 168.277C423.504 170.699 421.531 172.398 418.855 172.398C416.18 172.398 414.188 170.699 414.207 168.277C414.188 165.836 416.18 164.137 418.855 164.137ZM418.855 165.699C417.215 165.68 416.004 166.715 416.023 168.277C416.004 169.82 417.215 170.836 418.855 170.855C420.496 170.836 421.707 169.82 421.707 168.277C421.707 166.715 420.496 165.68 418.855 165.699ZM420.535 178.883H423.953V175.387H420.535V178.883ZM445.77 163.18V180.66H443.934V163.18H445.77ZM431.16 172.633C434.598 172.613 438.934 172.594 442.762 172.184L442.859 173.551C441.238 173.785 439.578 173.932 437.957 174.02V180.113H436.102V174.098C434.432 174.166 432.83 174.176 431.375 174.176L431.16 172.633ZM441.512 169.02V170.543H432.781V164.137H441.277V165.621H434.637V169.02H441.512ZM459.363 164.859V179H457.195V167.008H457.117L453.738 169.215V167.164L457.254 164.859H459.363ZM467.879 179.195C464.598 179.195 462.684 176.559 462.684 171.93C462.684 167.34 464.637 164.664 467.879 164.664C471.121 164.664 473.074 167.34 473.074 171.93C473.074 176.559 471.141 179.195 467.879 179.195ZM467.879 177.34C469.793 177.34 470.926 175.465 470.926 171.93C470.926 168.414 469.773 166.48 467.879 166.48C465.984 166.48 464.832 168.414 464.832 171.93C464.832 175.465 465.965 177.34 467.879 177.34ZM490.711 176.988V178.512H474.695V176.988H481.766V173.18H483.602V176.988H490.711ZM489.227 165.816V167.32H483.621C483.699 169.771 486.297 171.803 489.891 172.34L489.188 173.785C486.268 173.326 483.826 171.939 482.684 169.898C481.541 171.939 479.109 173.326 476.18 173.785L475.477 172.34C479.07 171.803 481.648 169.771 481.746 167.32H476.141V165.816H481.766V163.473H483.602V165.816H489.227ZM497.684 164.41C500.457 164.391 502.43 166.109 502.449 168.57C502.43 171.031 500.457 172.75 497.684 172.75C494.93 172.75 492.898 171.031 492.918 168.57C492.898 166.109 494.93 164.391 497.684 164.41ZM497.684 166.012C495.984 166.012 494.734 167.027 494.754 168.57C494.734 170.113 495.984 171.129 497.684 171.129C499.383 171.129 500.633 170.113 500.633 168.57C500.633 167.027 499.383 166.012 497.684 166.012ZM506.453 163.16V180.699H504.598V163.16H506.453ZM492.078 175.387C495.262 175.387 499.676 175.348 503.504 174.801L503.641 176.148C499.676 176.91 495.438 176.93 492.312 176.93L492.078 175.387ZM518.992 164.176C520.447 164.166 521.688 164.713 522.508 165.621H526.883V163.16H528.738V173.492H526.883V171.129H522.488C521.678 172.027 520.438 172.564 518.992 172.555C516.355 172.574 514.402 170.816 514.402 168.375C514.402 165.914 516.355 164.156 518.992 164.176ZM518.992 165.777C517.352 165.758 516.18 166.812 516.18 168.375C516.18 169.898 517.352 170.992 518.992 170.973C520.594 170.992 521.766 169.898 521.766 168.375C521.766 166.812 520.594 165.758 518.992 165.777ZM522.879 173.883C526.512 173.883 528.797 175.113 528.797 177.262C528.797 179.391 526.512 180.641 522.879 180.621C519.227 180.641 516.941 179.391 516.961 177.262C516.941 175.113 519.227 173.883 522.879 173.883ZM522.879 175.309C520.32 175.309 518.758 176.012 518.777 177.262C518.758 178.473 520.32 179.156 522.879 179.156C525.457 179.156 526.98 178.473 526.98 177.262C526.98 176.012 525.457 175.309 522.879 175.309ZM523.348 167.105C523.475 167.496 523.543 167.926 523.543 168.375C523.543 168.805 523.475 169.225 523.367 169.605H526.883V167.105H523.348ZM537.469 165.953C537.469 168.258 539.07 170.387 541.688 171.246L540.691 172.711C538.777 172.037 537.342 170.67 536.59 168.941C535.818 170.904 534.334 172.438 532.293 173.199L531.297 171.715C534.031 170.738 535.613 168.414 535.633 165.797V164.078H537.469V165.953ZM545.184 163.16V167.555H547.723V169.117H545.184V173.727H543.328V163.16H545.184ZM539.539 174.137C543.133 174.137 545.34 175.328 545.34 177.379C545.34 179.449 543.133 180.641 539.539 180.621C535.906 180.641 533.66 179.449 533.66 177.379C533.66 175.328 535.906 174.137 539.539 174.137ZM539.539 175.602C537 175.602 535.496 176.266 535.516 177.379C535.496 178.531 537 179.156 539.539 179.176C542.059 179.156 543.523 178.531 543.523 177.379C543.523 176.266 542.059 175.602 539.539 175.602ZM563.211 163.16V180.699H561.355V163.16H563.211ZM553.855 164.469C556.453 164.469 558.367 166.852 558.367 170.602C558.367 174.371 556.453 176.754 553.855 176.754C551.219 176.754 549.324 174.371 549.324 170.602C549.324 166.852 551.219 164.469 553.855 164.469ZM553.855 166.129C552.234 166.129 551.121 167.848 551.121 170.602C551.121 173.375 552.234 175.094 553.855 175.094C555.457 175.094 556.57 173.375 556.57 170.602C556.57 167.848 555.457 166.129 553.855 166.129ZM585.496 163.16V180.699H583.641V170.973H580.027V169.449H583.641V163.16H585.496ZM577.137 168.082C577.137 171.051 578.992 174.234 581.688 175.426L580.574 176.91C578.553 175.934 576.99 173.893 576.219 171.5C575.438 174.049 573.846 176.227 571.824 177.262L570.691 175.816C573.367 174.547 575.242 171.227 575.262 168.082V166.441H571.395V164.918H581.023V166.441H577.137V168.082ZM594.285 166.383C594.285 168.609 595.828 170.641 598.484 171.48L597.605 172.926C595.613 172.291 594.158 170.973 593.387 169.312C592.625 171.227 591.092 172.74 588.992 173.473L588.035 171.988C590.77 171.09 592.41 168.824 592.43 166.402V165.914H588.582V164.41H598.055V165.914H594.285V166.383ZM601.922 163.16V167.496H604.461V169.02H601.922V173.668H600.066V163.16H601.922ZM596.277 174.098C599.891 174.098 602.078 175.289 602.078 177.34C602.078 179.41 599.891 180.641 596.277 180.621C592.625 180.641 590.398 179.41 590.398 177.34C590.398 175.289 592.625 174.098 596.277 174.098ZM596.277 175.562C593.738 175.562 592.234 176.207 592.254 177.34C592.234 178.512 593.738 179.156 596.277 179.156C598.797 179.156 600.262 178.512 600.262 177.34C600.262 176.207 598.797 175.562 596.277 175.562ZM605.242 175.445C606.316 175.436 607.664 175.426 609.07 175.387V172.066H606.121V164.879H613.602V166.383H607.938V170.562H613.758V172.066H610.848V175.309C612.059 175.26 613.26 175.182 614.305 175.055L614.402 176.402C611.531 176.891 607.84 176.969 605.496 176.988L605.242 175.445ZM620.496 163.16V180.66H618.719V171.852H616.805V179.762H615.086V163.512H616.805V170.348H618.719V163.16H620.496ZM638.758 176.93V178.473H622.742V176.93H626.57V172.359C625.135 171.568 624.266 170.309 624.266 168.746C624.266 165.992 626.961 164.176 630.711 164.176C634.48 164.176 637.176 165.992 637.176 168.746C637.176 170.289 636.336 171.529 634.93 172.32V176.93H638.758ZM630.711 165.66C627.957 165.66 626.062 166.852 626.062 168.746C626.062 170.621 627.957 171.852 630.711 171.852C633.445 171.852 635.379 170.621 635.379 168.746C635.379 166.852 633.445 165.66 630.711 165.66ZM628.406 176.93H633.055V173.023C632.342 173.209 631.551 173.297 630.711 173.297C629.891 173.297 629.109 173.209 628.406 173.043V176.93Z" fill="#1B1B1B"/>
<defs>
<filter id="filter0_d_829_3721" x="43" y="42" width="654" height="200" filterUnits="userSpaceOnUse" color-interpolation-filters="sRGB">
<feFlood flood-opacity="0" result="BackgroundImageFix"/>
<feColorMatrix in="SourceAlpha" type="matrix" values="0 0 0 0 0 0 0 0 0 0 0 0 0 0 0 0 0 0 127 0" result="hardAlpha"/>
<feOffset dy="4"/>
<feGaussianBlur stdDeviation="11.5"/>
<feComposite in2="hardAlpha" operator="out"/>
<feColorMatrix type="matrix" values="0 0 0 0 0 0 0 0 0 0.8 0 0 0 0 0.8 0 0 0 0.15 0"/>
<feBlend mode="normal" in2="BackgroundImageFix" result="effect1_dropShadow_829_3721"/>
<feBlend mode="normal" in="SourceGraphic" in2="effect1_dropShadow_829_3721" result="shape"/>
</filter>
</defs>
</svg>
