<svg width="739" height="276" viewBox="0 0 739 276" fill="none" xmlns="http://www.w3.org/2000/svg">
<g filter="url(#filter0_d_829_3621)">
<rect x="66" y="69" width="608" height="154" rx="20" fill="white"/>
<path d="M366.236 51.6104C367.83 49.3591 371.17 49.3591 372.765 51.6104L393.177 80.4385C395.053 83.0876 393.158 86.75 389.912 86.75H349.088C345.842 86.75 343.947 83.0876 345.823 80.4385L366.236 51.6104Z" fill="white"/>
</g>
<rect width="1.66667" height="11.6925" rx="0.833333" transform="matrix(-0.706993 -0.707221 -0.706993 0.707221 127.611 108.179)" fill="#1B1B1B"/>
<rect width="1.66667" height="7.06019" rx="0.833333" transform="matrix(0.706993 -0.707221 0.706993 0.707221 114.334 111.461)" fill="#1B1B1B"/>
<path d="M149.422 112.457V115.484C151.023 115.396 152.645 115.26 154.168 115.035L154.305 116.402C150.34 117.125 146.102 117.164 142.977 117.164L142.742 115.641C144.148 115.631 145.809 115.621 147.566 115.562V112.457H149.422ZM153.348 105.387V106.891H149.422C149.52 108.941 151.18 110.719 153.797 111.422L152.938 112.867C150.848 112.271 149.285 111.002 148.504 109.332C147.732 111.09 146.199 112.418 144.09 113.023L143.211 111.617C145.818 110.875 147.459 109.039 147.547 106.891H143.68V105.387H147.566V103.297H149.422V105.387H153.348ZM157.117 103.16V120.699H155.262V103.16H157.117ZM174.949 103.16V120.66H173.172V111.617H170.906V119.762H169.207V103.512H170.906V110.094H173.172V103.16H174.949ZM167.078 105.27V106.773H162.371V114.879C164.52 114.859 166.141 114.762 168.016 114.41L168.152 115.934C166.043 116.363 164.246 116.441 161.688 116.461H160.516V105.27H167.078ZM187.82 119.195C185.203 119.176 182.469 117.633 182.469 112.398C182.469 107.477 184.598 104.664 187.996 104.664C190.594 104.664 192.41 106.285 192.742 108.531H190.613C190.34 107.379 189.422 106.539 187.996 106.539C185.809 106.539 184.539 108.453 184.539 111.637H184.695C185.457 110.445 186.785 109.723 188.328 109.723C190.848 109.723 192.879 111.656 192.879 114.371C192.879 117.105 190.867 119.215 187.82 119.195ZM187.801 117.398C189.52 117.398 190.789 116.07 190.789 114.41C190.789 112.789 189.559 111.48 187.859 111.48C186.121 111.48 184.812 112.848 184.793 114.43C184.812 115.992 186.062 117.398 187.801 117.398ZM200.086 119.195C196.805 119.195 194.891 116.559 194.891 111.93C194.891 107.34 196.844 104.664 200.086 104.664C203.328 104.664 205.281 107.34 205.281 111.93C205.281 116.559 203.348 119.195 200.086 119.195ZM200.086 117.34C202 117.34 203.133 115.465 203.133 111.93C203.133 108.414 201.98 106.48 200.086 106.48C198.191 106.48 197.039 108.414 197.039 111.93C197.039 115.465 198.172 117.34 200.086 117.34ZM222.898 112.32V113.805H215.945V117.027H214.109V113.805H206.883V112.32H222.898ZM221.121 118.785V120.289H208.875V115.504H210.711V118.785H221.121ZM210.828 103.707V105.836H218.934V103.707H220.789V110.777H208.992V103.707H210.828ZM210.828 109.293H218.934V107.223H210.828V109.293ZM238.094 103.16V110.27H240.633V111.793H238.094V120.66H236.238V103.16H238.094ZM229.461 105.035C229.461 109.41 228.66 113.395 225.496 116.773L224.031 115.738C226.59 113.082 227.518 110.064 227.703 106.559H224.656V105.035H229.461ZM234.285 105.035C234.285 109.469 233.738 114.117 230.516 117.926L229.031 116.91C231.629 113.873 232.41 110.299 232.547 106.559H230.027V105.035H234.285ZM247.918 108.316C247.918 111.246 249.832 114.273 252.527 115.426L251.512 116.871C249.451 115.963 247.811 114.039 247 111.695C246.189 114.195 244.539 116.324 242.508 117.32L241.434 115.855C244.07 114.625 246.023 111.324 246.043 108.316V106.461H242.039V104.918H251.902V106.461H247.918V108.316ZM255.965 103.16V120.66H254.109V103.16H255.965ZM277.801 107.906V109.41H272.547V111.617H279.617V113.102H263.641V111.617H270.691V109.41H265.75V103.512H267.586V107.906H277.801ZM277.645 114.762V120.66H275.77V116.266H265.477V114.762H277.645ZM294.637 103.16V110.484H297.273V112.047H294.637V120.66H292.781V103.16H294.637ZM280.711 115.895C282.088 115.895 283.689 115.895 285.359 115.836V114.059C283.387 113.785 282.098 112.594 282.117 110.895C282.098 108.922 283.797 107.613 286.297 107.613C288.777 107.613 290.496 108.922 290.516 110.895C290.496 112.594 289.188 113.795 287.215 114.078V115.758C288.768 115.699 290.33 115.572 291.785 115.367L291.902 116.734C288.113 117.418 284.012 117.438 281.004 117.438L280.711 115.895ZM291.531 105.23V106.715H281.043V105.23H285.359V103.199H287.215V105.23H291.531ZM286.297 109.059C284.832 109.059 283.855 109.781 283.855 110.895C283.855 112.008 284.832 112.691 286.297 112.691C287.762 112.691 288.738 112.008 288.738 110.895C288.738 109.781 287.762 109.059 286.297 109.059ZM311.844 103.16V110.133H314.559V111.676H311.844V120.641H309.988V103.16H311.844ZM307.273 104.996C307.254 110.055 305.027 114.566 299.266 117.418L298.23 115.973C302.615 113.785 304.998 110.621 305.379 106.539H299.109V104.996H307.273ZM334.012 103.16V110.133H336.727V111.676H334.012V120.641H332.156V103.16H334.012ZM329.441 104.996C329.422 110.055 327.195 114.566 321.434 117.418L320.398 115.973C324.783 113.785 327.166 110.621 327.547 106.539H321.277V104.996H329.441ZM351.805 107.887V109.391H339.793V103.473H341.629V107.887H351.805ZM353.641 111.246V112.77H337.664V111.246H353.641ZM345.633 114.195C349.402 114.195 351.668 115.348 351.668 117.379C351.668 119.43 349.402 120.582 345.633 120.582C341.844 120.582 339.559 119.43 339.559 117.379C339.559 115.348 341.844 114.195 345.633 114.195ZM345.633 115.641C342.957 115.66 341.434 116.246 341.434 117.379C341.434 118.492 342.957 119.156 345.633 119.156C348.27 119.156 349.812 118.492 349.812 117.379C349.812 116.246 348.27 115.66 345.633 115.641ZM363.602 106.051V107.555H354.91V106.051H358.348V103.668H360.184V106.051H363.602ZM359.266 108.609C361.492 108.609 363.055 110.27 363.074 112.633C363.055 115.016 361.492 116.695 359.266 116.695C357.078 116.695 355.457 115.016 355.477 112.633C355.457 110.27 357.078 108.609 359.266 108.609ZM359.266 110.152C357.996 110.152 357.117 111.188 357.117 112.633C357.117 114.117 357.996 115.113 359.266 115.113C360.516 115.113 361.434 114.117 361.434 112.633C361.434 111.188 360.516 110.152 359.266 110.152ZM369.93 103.16V120.66H368.172V111.969H366.16V119.84H364.402V103.551H366.16V110.445H368.172V103.16H369.93ZM388.25 116.93V118.473H372.234V116.93H376.062V112.359C374.627 111.568 373.758 110.309 373.758 108.746C373.758 105.992 376.453 104.176 380.203 104.176C383.973 104.176 386.668 105.992 386.668 108.746C386.668 110.289 385.828 111.529 384.422 112.32V116.93H388.25ZM380.203 105.66C377.449 105.66 375.555 106.852 375.555 108.746C375.555 110.621 377.449 111.852 380.203 111.852C382.938 111.852 384.871 110.621 384.871 108.746C384.871 106.852 382.938 105.66 380.203 105.66ZM377.898 116.93H382.547V113.023C381.834 113.209 381.043 113.297 380.203 113.297C379.383 113.297 378.602 113.209 377.898 113.043V116.93Z" fill="#1B1B1B"/>
<rect width="1.66667" height="11.6925" rx="0.833333" transform="matrix(-0.706993 -0.707221 -0.706993 0.707221 127.611 142.179)" fill="#1B1B1B"/>
<rect width="1.66667" height="7.06019" rx="0.833333" transform="matrix(0.706993 -0.707221 0.706993 0.707221 114.334 145.461)" fill="#1B1B1B"/>
<path d="M150.613 137.531C154.461 137.531 156.863 138.781 156.863 140.891C156.863 142.961 154.461 144.191 150.613 144.191C146.785 144.191 144.363 142.961 144.363 140.891C144.363 138.781 146.785 137.531 150.613 137.531ZM150.613 138.996C147.918 138.996 146.258 139.68 146.277 140.891C146.258 142.062 147.918 142.727 150.613 142.746C153.289 142.727 154.949 142.062 154.949 140.891C154.949 139.68 153.289 138.996 150.613 138.996ZM156.648 148.605V154.445H144.559V148.605H156.648ZM146.395 150.09V152.941H154.852V150.09H146.395ZM158.602 145.539V147.043H142.645V145.539H158.602ZM166.141 139.777C166.141 142.238 167.723 144.426 170.379 145.285L169.363 146.73C167.439 146.037 166.023 144.689 165.262 142.941C164.5 144.943 162.977 146.496 160.867 147.258L159.871 145.773C162.664 144.816 164.285 142.492 164.305 139.855V138.137H166.141V139.777ZM174.52 137.16V147.492H172.664V142.238H168.973V140.715H172.664V137.16H174.52ZM168.66 147.98C172.332 147.98 174.578 149.191 174.578 151.32C174.578 153.43 172.332 154.641 168.66 154.621C164.988 154.641 162.723 153.43 162.742 151.32C162.723 149.191 164.988 147.98 168.66 147.98ZM168.66 149.426C166.102 149.426 164.578 150.109 164.578 151.32C164.578 152.492 166.102 153.156 168.66 153.156C171.219 153.156 172.742 152.492 172.742 151.32C172.742 150.109 171.219 149.426 168.66 149.426ZM193.172 146.301V147.785H177.215V146.301H193.172ZM191.375 152.785V154.289H179.227V149.211H181.102V152.785H191.375ZM185.184 137.746C188.973 137.727 191.434 139.055 191.434 141.242C191.434 143.449 188.973 144.777 185.184 144.797C181.375 144.777 178.934 143.449 178.934 141.242C178.934 139.055 181.375 137.727 185.184 137.746ZM185.184 139.23C182.508 139.23 180.828 139.992 180.848 141.242C180.828 142.531 182.508 143.273 185.184 143.273C187.859 143.273 189.52 142.531 189.52 141.242C189.52 139.992 187.859 139.23 185.184 139.23ZM213.543 141.906V143.41H208.289V145.617H215.359V147.102H199.383V145.617H206.434V143.41H201.492V137.512H203.328V141.906H213.543ZM213.387 148.762V154.66H211.512V150.266H201.219V148.762H213.387ZM224.637 137.531C228.484 137.531 230.887 138.781 230.887 140.891C230.887 142.961 228.484 144.191 224.637 144.191C220.809 144.191 218.387 142.961 218.387 140.891C218.387 138.781 220.809 137.531 224.637 137.531ZM224.637 138.996C221.941 138.996 220.281 139.68 220.301 140.891C220.281 142.062 221.941 142.727 224.637 142.746C227.312 142.727 228.973 142.062 228.973 140.891C228.973 139.68 227.312 138.996 224.637 138.996ZM230.672 148.605V154.445H218.582V148.605H230.672ZM220.418 150.09V152.941H228.875V150.09H220.418ZM232.625 145.539V147.043H216.668V145.539H232.625ZM244.383 144.562V146.086H240.691V149.328C242.312 149.25 243.943 149.143 245.477 148.977L245.613 150.344C241.766 150.93 237.605 150.969 234.285 150.988L234.051 149.445C235.525 149.445 237.156 149.436 238.836 149.387V146.086H235.32V138.781H244.305V140.285H237.156V144.562H244.383ZM248.426 137.16V154.699H246.57V137.16H248.426ZM257.684 142.316C257.684 145.246 259.598 148.273 262.293 149.426L261.277 150.871C259.217 149.963 257.576 148.039 256.766 145.695C255.955 148.195 254.305 150.324 252.273 151.32L251.199 149.855C253.836 148.625 255.789 145.324 255.809 142.316V140.461H251.805V138.918H261.668V140.461H257.684V142.316ZM265.73 137.16V154.66H263.875V137.16H265.73ZM278.27 138.098C280.926 138.098 282.859 139.797 282.859 142.16C282.859 144.543 280.926 146.223 278.27 146.223C275.633 146.223 273.66 144.543 273.68 142.16C273.66 139.797 275.633 138.098 278.27 138.098ZM278.27 139.641C276.688 139.641 275.477 140.676 275.477 142.16C275.477 143.645 276.688 144.699 278.27 144.699C279.871 144.699 281.062 143.645 281.062 142.16C281.062 140.676 279.871 139.641 278.27 139.641ZM287.156 137.16V140.988H289.695V142.531H287.156V145.871H285.301V137.16H287.156ZM276.98 147.688V152.668C278.006 152.619 279.188 152.473 280.301 152.102L280.574 153.566C278.953 154.113 277.371 154.191 276.062 154.191H275.164V147.688H276.98ZM288.797 147.746V149.172H279.969V147.746H283.504V146.32H285.32V147.746H288.797ZM284.383 149.68C286.316 149.68 287.684 150.656 287.684 152.18C287.684 153.684 286.316 154.641 284.383 154.621C282.41 154.641 281.062 153.684 281.082 152.18C281.062 150.656 282.41 149.68 284.383 149.68ZM284.383 151.008C283.406 151.008 282.723 151.457 282.723 152.18C282.723 152.883 283.406 153.332 284.383 153.332C285.34 153.332 286.023 152.883 286.023 152.18C286.023 151.457 285.34 151.008 284.383 151.008ZM295.379 138.469C297.996 138.469 299.852 140.852 299.871 144.602C299.852 148.371 297.996 150.754 295.379 150.754C292.762 150.754 290.887 148.371 290.906 144.602C290.887 140.852 292.762 138.469 295.379 138.469ZM295.379 140.129C293.777 140.129 292.684 141.848 292.684 144.602C292.684 147.375 293.777 149.094 295.379 149.094C297 149.094 298.094 147.375 298.094 144.602C298.094 141.848 297 140.129 295.379 140.129ZM304.324 137.16V144.016H307.137V145.578H304.324V154.66H302.469V137.16H304.324ZM323.992 150.93V152.473H307.977V150.93H311.805V146.359C310.369 145.568 309.5 144.309 309.5 142.746C309.5 139.992 312.195 138.176 315.945 138.176C319.715 138.176 322.41 139.992 322.41 142.746C322.41 144.289 321.57 145.529 320.164 146.32V150.93H323.992ZM315.945 139.66C313.191 139.66 311.297 140.852 311.297 142.746C311.297 144.621 313.191 145.852 315.945 145.852C318.68 145.852 320.613 144.621 320.613 142.746C320.613 140.852 318.68 139.66 315.945 139.66ZM313.641 150.93H318.289V147.023C317.576 147.209 316.785 147.297 315.945 147.297C315.125 147.297 314.344 147.209 313.641 147.043V150.93Z" fill="#1B1B1B"/>
<rect width="1.66667" height="11.6925" rx="0.833333" transform="matrix(-0.706993 -0.707221 -0.706993 0.707221 127.611 176.179)" fill="#1B1B1B"/>
<rect width="1.66667" height="7.06019" rx="0.833333" transform="matrix(0.706993 -0.707221 0.706993 0.707221 114.334 179.461)" fill="#1B1B1B"/>
<path d="M157.137 171.16V188.699H155.281V171.16H157.137ZM147.781 172.469C150.379 172.469 152.293 174.852 152.293 178.602C152.293 182.371 150.379 184.754 147.781 184.754C145.145 184.754 143.25 182.371 143.25 178.602C143.25 174.852 145.145 172.469 147.781 172.469ZM147.781 174.129C146.16 174.129 145.047 175.848 145.047 178.602C145.047 181.375 146.16 183.094 147.781 183.094C149.383 183.094 150.496 181.375 150.496 178.602C150.496 175.848 149.383 174.129 147.781 174.129ZM175.926 181.043V182.566H172V188.758H170.145V182.566H165.75V188.758H163.895V182.566H159.91V181.043H175.926ZM168.895 172.703C168.875 175.047 171.766 177.273 175.164 177.742L174.422 179.266C171.59 178.777 169.07 177.273 167.938 175.203C166.785 177.283 164.285 178.777 161.434 179.266L160.672 177.742C164.09 177.254 166.941 175.066 166.961 172.703V171.746H168.895V172.703ZM196.707 171.16V188.699H194.852V178.973H191.238V177.449H194.852V171.16H196.707ZM188.348 176.082C188.348 179.051 190.203 182.234 192.898 183.426L191.785 184.91C189.764 183.934 188.201 181.893 187.43 179.5C186.648 182.049 185.057 184.227 183.035 185.262L181.902 183.816C184.578 182.547 186.453 179.227 186.473 176.082V174.441H182.605V172.918H192.234V174.441H188.348V176.082ZM205.496 174.383C205.496 176.609 207.039 178.641 209.695 179.48L208.816 180.926C206.824 180.291 205.369 178.973 204.598 177.312C203.836 179.227 202.303 180.74 200.203 181.473L199.246 179.988C201.98 179.09 203.621 176.824 203.641 174.402V173.914H199.793V172.41H209.266V173.914H205.496V174.383ZM213.133 171.16V175.496H215.672V177.02H213.133V181.668H211.277V171.16H213.133ZM207.488 182.098C211.102 182.098 213.289 183.289 213.289 185.34C213.289 187.41 211.102 188.641 207.488 188.621C203.836 188.641 201.609 187.41 201.609 185.34C201.609 183.289 203.836 182.098 207.488 182.098ZM207.488 183.562C204.949 183.562 203.445 184.207 203.465 185.34C203.445 186.512 204.949 187.156 207.488 187.156C210.008 187.156 211.473 186.512 211.473 185.34C211.473 184.207 210.008 183.562 207.488 183.562ZM227.977 175.613C227.957 178.816 229.891 182.02 232.605 183.23L231.492 184.695C229.48 183.738 227.889 181.775 227.078 179.383C226.258 181.941 224.646 184.061 222.547 185.086L221.414 183.523C224.168 182.293 226.102 178.953 226.102 175.613V172.625H227.977V175.613ZM236.043 171.16V188.699H234.188V171.16H236.043ZM252.371 174.051V175.555H243.68V174.051H247.117V171.668H248.953V174.051H252.371ZM248.035 176.609C250.262 176.609 251.824 178.27 251.844 180.633C251.824 183.016 250.262 184.695 248.035 184.695C245.848 184.695 244.227 183.016 244.246 180.633C244.227 178.27 245.848 176.609 248.035 176.609ZM248.035 178.152C246.766 178.152 245.887 179.188 245.887 180.633C245.887 182.117 246.766 183.113 248.035 183.113C249.285 183.113 250.203 182.117 250.203 180.633C250.203 179.188 249.285 178.152 248.035 178.152ZM258.699 171.16V188.66H256.941V179.969H254.93V187.84H253.172V171.551H254.93V178.445H256.941V171.16H258.699ZM274.773 171.16V175.594H277.293V177.117H274.773V181.492H272.898V171.16H274.773ZM269.109 181.824C272.684 181.824 274.91 183.074 274.91 185.223C274.91 187.371 272.684 188.641 269.109 188.621C265.496 188.641 263.23 187.371 263.23 185.223C263.23 183.074 265.496 181.824 269.109 181.824ZM269.109 183.328C266.57 183.309 265.047 184.012 265.066 185.223C265.047 186.434 266.57 187.137 269.109 187.137C271.59 187.137 273.113 186.434 273.133 185.223C273.113 184.012 271.59 183.309 269.109 183.328ZM269.559 172.449V173.953H263.582V178.719C267.029 178.709 268.973 178.602 271.18 178.152L271.355 179.656C269.012 180.145 266.922 180.223 263.133 180.223H261.746V172.449H269.559ZM289.617 176.316C289.617 179.246 291.531 182.273 294.227 183.426L293.211 184.871C291.15 183.963 289.51 182.039 288.699 179.695C287.889 182.195 286.238 184.324 284.207 185.32L283.133 183.855C285.77 182.625 287.723 179.324 287.742 176.316V174.461H283.738V172.918H293.602V174.461H289.617V176.316ZM297.664 171.16V188.66H295.809V171.16H297.664ZM315.047 171.16V181.355H313.191V176.961H309.91V175.418H313.191V171.16H315.047ZM315.047 182.176V188.445H303.504V182.176H315.047ZM305.34 183.641V186.941H313.23V183.641H305.34ZM306.727 174.148C306.727 176.336 308.309 178.504 310.945 179.422L309.988 180.887C308.025 180.193 306.57 178.787 305.809 177.059C305.047 178.982 303.514 180.525 301.434 181.258L300.477 179.793C303.172 178.875 304.832 176.551 304.832 174.148V173.738H301.043V172.215H310.477V173.738H306.727V174.148ZM323.445 172.41C326.219 172.391 328.191 174.109 328.211 176.57C328.191 179.031 326.219 180.75 323.445 180.75C320.691 180.75 318.66 179.031 318.68 176.57C318.66 174.109 320.691 172.391 323.445 172.41ZM323.445 174.012C321.746 174.012 320.496 175.027 320.516 176.57C320.496 178.113 321.746 179.129 323.445 179.129C325.145 179.129 326.395 178.113 326.395 176.57C326.395 175.027 325.145 174.012 323.445 174.012ZM332.215 171.16V188.699H330.359V171.16H332.215ZM317.84 183.387C321.023 183.387 325.438 183.348 329.266 182.801L329.402 184.148C325.438 184.91 321.199 184.93 318.074 184.93L317.84 183.387ZM354.402 171.16V188.699H352.547V171.16H354.402ZM345.047 172.469C347.645 172.469 349.559 174.852 349.559 178.602C349.559 182.371 347.645 184.754 345.047 184.754C342.41 184.754 340.516 182.371 340.516 178.602C340.516 174.852 342.41 172.469 345.047 172.469ZM345.047 174.129C343.426 174.129 342.312 175.848 342.312 178.602C342.312 181.375 343.426 183.094 345.047 183.094C346.648 183.094 347.762 181.375 347.762 178.602C347.762 175.848 346.648 174.129 345.047 174.129ZM366.375 172.84V184.344H358.172V172.84H366.375ZM360.008 174.305V182.84H364.578V174.305H360.008ZM371.688 171.16V188.699H369.832V171.16H371.688ZM380.926 176.316C380.926 179.246 382.84 182.273 385.535 183.426L384.52 184.871C382.459 183.963 380.818 182.039 380.008 179.695C379.197 182.195 377.547 184.324 375.516 185.32L374.441 183.855C377.078 182.625 379.031 179.324 379.051 176.316V174.461H375.047V172.918H384.91V174.461H380.926V176.316ZM388.973 171.16V188.66H387.117V171.16H388.973ZM397.02 172.273C399.715 172.273 401.727 173.973 401.727 176.434C401.727 178.602 400.164 180.174 397.957 180.516V183.289C399.51 183.221 401.062 183.104 402.508 182.918L402.645 184.305C398.953 184.949 394.871 184.969 391.844 184.949L391.551 183.426C392.908 183.416 394.471 183.406 396.102 183.367V180.516C393.836 180.193 392.293 178.611 392.312 176.434C392.293 173.973 394.266 172.273 397.02 172.273ZM397.02 173.836C395.34 173.855 394.109 174.871 394.109 176.434C394.109 177.996 395.34 179.031 397.02 179.012C398.68 179.031 399.891 177.996 399.91 176.434C399.891 174.871 398.68 173.855 397.02 173.836ZM405.418 171.16V178.27H408.113V179.832H405.418V188.66H403.562V171.16H405.418ZM427.684 171.18V175.32H430.223V176.824H427.684V181.023H425.828V171.18H427.684ZM428.094 181.902V183.387H425.77V186.883H428.328V188.387H416.219V186.883H418.738V183.387H416.355V181.902H428.094ZM418.855 172.137C421.531 172.137 423.504 173.836 423.523 176.277C423.504 178.699 421.531 180.398 418.855 180.398C416.18 180.398 414.188 178.699 414.207 176.277C414.188 173.836 416.18 172.137 418.855 172.137ZM418.855 173.699C417.215 173.68 416.004 174.715 416.023 176.277C416.004 177.82 417.215 178.836 418.855 178.855C420.496 178.836 421.707 177.82 421.707 176.277C421.707 174.715 420.496 173.68 418.855 173.699ZM420.535 186.883H423.953V183.387H420.535V186.883ZM445.77 171.18V188.66H443.934V171.18H445.77ZM431.16 180.633C434.598 180.613 438.934 180.594 442.762 180.184L442.859 181.551C441.238 181.785 439.578 181.932 437.957 182.02V188.113H436.102V182.098C434.432 182.166 432.83 182.176 431.375 182.176L431.16 180.633ZM441.512 177.02V178.543H432.781V172.137H441.277V173.621H434.637V177.02H441.512ZM459.363 172.859V187H457.195V175.008H457.117L453.738 177.215V175.164L457.254 172.859H459.363ZM467.879 187.195C464.598 187.195 462.684 184.559 462.684 179.93C462.684 175.34 464.637 172.664 467.879 172.664C471.121 172.664 473.074 175.34 473.074 179.93C473.074 184.559 471.141 187.195 467.879 187.195ZM467.879 185.34C469.793 185.34 470.926 183.465 470.926 179.93C470.926 176.414 469.773 174.48 467.879 174.48C465.984 174.48 464.832 176.414 464.832 179.93C464.832 183.465 465.965 185.34 467.879 185.34ZM490.711 184.988V186.512H474.695V184.988H481.766V181.18H483.602V184.988H490.711ZM489.227 173.816V175.32H483.621C483.699 177.771 486.297 179.803 489.891 180.34L489.188 181.785C486.268 181.326 483.826 179.939 482.684 177.898C481.541 179.939 479.109 181.326 476.18 181.785L475.477 180.34C479.07 179.803 481.648 177.771 481.746 175.32H476.141V173.816H481.766V171.473H483.602V173.816H489.227ZM497.684 172.41C500.457 172.391 502.43 174.109 502.449 176.57C502.43 179.031 500.457 180.75 497.684 180.75C494.93 180.75 492.898 179.031 492.918 176.57C492.898 174.109 494.93 172.391 497.684 172.41ZM497.684 174.012C495.984 174.012 494.734 175.027 494.754 176.57C494.734 178.113 495.984 179.129 497.684 179.129C499.383 179.129 500.633 178.113 500.633 176.57C500.633 175.027 499.383 174.012 497.684 174.012ZM506.453 171.16V188.699H504.598V171.16H506.453ZM492.078 183.387C495.262 183.387 499.676 183.348 503.504 182.801L503.641 184.148C499.676 184.91 495.438 184.93 492.312 184.93L492.078 183.387ZM518.992 172.176C520.447 172.166 521.688 172.713 522.508 173.621H526.883V171.16H528.738V181.492H526.883V179.129H522.488C521.678 180.027 520.438 180.564 518.992 180.555C516.355 180.574 514.402 178.816 514.402 176.375C514.402 173.914 516.355 172.156 518.992 172.176ZM518.992 173.777C517.352 173.758 516.18 174.812 516.18 176.375C516.18 177.898 517.352 178.992 518.992 178.973C520.594 178.992 521.766 177.898 521.766 176.375C521.766 174.812 520.594 173.758 518.992 173.777ZM522.879 181.883C526.512 181.883 528.797 183.113 528.797 185.262C528.797 187.391 526.512 188.641 522.879 188.621C519.227 188.641 516.941 187.391 516.961 185.262C516.941 183.113 519.227 181.883 522.879 181.883ZM522.879 183.309C520.32 183.309 518.758 184.012 518.777 185.262C518.758 186.473 520.32 187.156 522.879 187.156C525.457 187.156 526.98 186.473 526.98 185.262C526.98 184.012 525.457 183.309 522.879 183.309ZM523.348 175.105C523.475 175.496 523.543 175.926 523.543 176.375C523.543 176.805 523.475 177.225 523.367 177.605H526.883V175.105H523.348ZM537.469 173.953C537.469 176.258 539.07 178.387 541.688 179.246L540.691 180.711C538.777 180.037 537.342 178.67 536.59 176.941C535.818 178.904 534.334 180.438 532.293 181.199L531.297 179.715C534.031 178.738 535.613 176.414 535.633 173.797V172.078H537.469V173.953ZM545.184 171.16V175.555H547.723V177.117H545.184V181.727H543.328V171.16H545.184ZM539.539 182.137C543.133 182.137 545.34 183.328 545.34 185.379C545.34 187.449 543.133 188.641 539.539 188.621C535.906 188.641 533.66 187.449 533.66 185.379C533.66 183.328 535.906 182.137 539.539 182.137ZM539.539 183.602C537 183.602 535.496 184.266 535.516 185.379C535.496 186.531 537 187.156 539.539 187.176C542.059 187.156 543.523 186.531 543.523 185.379C543.523 184.266 542.059 183.602 539.539 183.602ZM563.211 171.16V188.699H561.355V171.16H563.211ZM553.855 172.469C556.453 172.469 558.367 174.852 558.367 178.602C558.367 182.371 556.453 184.754 553.855 184.754C551.219 184.754 549.324 182.371 549.324 178.602C549.324 174.852 551.219 172.469 553.855 172.469ZM553.855 174.129C552.234 174.129 551.121 175.848 551.121 178.602C551.121 181.375 552.234 183.094 553.855 183.094C555.457 183.094 556.57 181.375 556.57 178.602C556.57 175.848 555.457 174.129 553.855 174.129ZM585.496 171.16V188.699H583.641V178.973H580.027V177.449H583.641V171.16H585.496ZM577.137 176.082C577.137 179.051 578.992 182.234 581.688 183.426L580.574 184.91C578.553 183.934 576.99 181.893 576.219 179.5C575.438 182.049 573.846 184.227 571.824 185.262L570.691 183.816C573.367 182.547 575.242 179.227 575.262 176.082V174.441H571.395V172.918H581.023V174.441H577.137V176.082ZM594.285 174.383C594.285 176.609 595.828 178.641 598.484 179.48L597.605 180.926C595.613 180.291 594.158 178.973 593.387 177.312C592.625 179.227 591.092 180.74 588.992 181.473L588.035 179.988C590.77 179.09 592.41 176.824 592.43 174.402V173.914H588.582V172.41H598.055V173.914H594.285V174.383ZM601.922 171.16V175.496H604.461V177.02H601.922V181.668H600.066V171.16H601.922ZM596.277 182.098C599.891 182.098 602.078 183.289 602.078 185.34C602.078 187.41 599.891 188.641 596.277 188.621C592.625 188.641 590.398 187.41 590.398 185.34C590.398 183.289 592.625 182.098 596.277 182.098ZM596.277 183.562C593.738 183.562 592.234 184.207 592.254 185.34C592.234 186.512 593.738 187.156 596.277 187.156C598.797 187.156 600.262 186.512 600.262 185.34C600.262 184.207 598.797 183.562 596.277 183.562ZM605.242 183.445C606.316 183.436 607.664 183.426 609.07 183.387V180.066H606.121V172.879H613.602V174.383H607.938V178.562H613.758V180.066H610.848V183.309C612.059 183.26 613.26 183.182 614.305 183.055L614.402 184.402C611.531 184.891 607.84 184.969 605.496 184.988L605.242 183.445ZM620.496 171.16V188.66H618.719V179.852H616.805V187.762H615.086V171.512H616.805V178.348H618.719V171.16H620.496ZM638.758 184.93V186.473H622.742V184.93H626.57V180.359C625.135 179.568 624.266 178.309 624.266 176.746C624.266 173.992 626.961 172.176 630.711 172.176C634.48 172.176 637.176 173.992 637.176 176.746C637.176 178.289 636.336 179.529 634.93 180.32V184.93H638.758ZM630.711 173.66C627.957 173.66 626.062 174.852 626.062 176.746C626.062 178.621 627.957 179.852 630.711 179.852C633.445 179.852 635.379 178.621 635.379 176.746C635.379 174.852 633.445 173.66 630.711 173.66ZM628.406 184.93H633.055V181.023C632.342 181.209 631.551 181.297 630.711 181.297C629.891 181.297 629.109 181.209 628.406 181.043V184.93Z" fill="#1B1B1B"/>
<defs>
<filter id="filter0_d_829_3621" x="43" y="30.9219" width="654" height="219.078" filterUnits="userSpaceOnUse" color-interpolation-filters="sRGB">
<feFlood flood-opacity="0" result="BackgroundImageFix"/>
<feColorMatrix in="SourceAlpha" type="matrix" values="0 0 0 0 0 0 0 0 0 0 0 0 0 0 0 0 0 0 127 0" result="hardAlpha"/>
<feOffset dy="4"/>
<feGaussianBlur stdDeviation="11.5"/>
<feComposite in2="hardAlpha" operator="out"/>
<feColorMatrix type="matrix" values="0 0 0 0 0 0 0 0 0 0.8 0 0 0 0 0.8 0 0 0 0.15 0"/>
<feBlend mode="normal" in2="BackgroundImageFix" result="effect1_dropShadow_829_3621"/>
<feBlend mode="normal" in="SourceGraphic" in2="effect1_dropShadow_829_3621" result="shape"/>
</filter>
</defs>
</svg>
