<svg width="739" height="276" viewBox="0 0 739 276" fill="none" xmlns="http://www.w3.org/2000/svg">
<g clip-path="url(#clip0_829_3621)">
<g filter="url(#filter0_d_829_3621)">
<rect x="66" y="69" width="608" height="198" rx="20" fill="white"/>
<path d="M366.236 51.6104C367.83 49.3591 371.17 49.3591 372.765 51.6104L393.177 80.4385C395.053 83.0876 393.158 86.75 389.912 86.75H349.088C345.842 86.75 343.947 83.0876 345.823 80.4385L366.236 51.6104Z" fill="white"/>
</g>
<rect width="1.66667" height="11.6925" rx="0.833333" transform="matrix(-0.706993 -0.707221 -0.706993 0.707221 127.611 109.179)" fill="#1B1B1B"/>
<rect width="1.66667" height="7.06019" rx="0.833333" transform="matrix(0.706993 -0.707221 0.706993 0.707221 114.334 112.461)" fill="#1B1B1B"/>
<path d="M149.422 113.457V116.484C151.023 116.396 152.645 116.26 154.168 116.035L154.305 117.402C150.34 118.125 146.102 118.164 142.977 118.164L142.742 116.641C144.148 116.631 145.809 116.621 147.566 116.562V113.457H149.422ZM153.348 106.387V107.891H149.422C149.52 109.941 151.18 111.719 153.797 112.422L152.938 113.867C150.848 113.271 149.285 112.002 148.504 110.332C147.732 112.09 146.199 113.418 144.09 114.023L143.211 112.617C145.818 111.875 147.459 110.039 147.547 107.891H143.68V106.387H147.566V104.297H149.422V106.387H153.348ZM157.117 104.16V121.699H155.262V104.16H157.117ZM174.949 104.16V121.66H173.172V112.617H170.906V120.762H169.207V104.512H170.906V111.094H173.172V104.16H174.949ZM167.078 106.27V107.773H162.371V115.879C164.52 115.859 166.141 115.762 168.016 115.41L168.152 116.934C166.043 117.363 164.246 117.441 161.688 117.461H160.516V106.27H167.078ZM187.82 120.195C185.203 120.176 182.469 118.633 182.469 113.398C182.469 108.477 184.598 105.664 187.996 105.664C190.594 105.664 192.41 107.285 192.742 109.531H190.613C190.34 108.379 189.422 107.539 187.996 107.539C185.809 107.539 184.539 109.453 184.539 112.637H184.695C185.457 111.445 186.785 110.723 188.328 110.723C190.848 110.723 192.879 112.656 192.879 115.371C192.879 118.105 190.867 120.215 187.82 120.195ZM187.801 118.398C189.52 118.398 190.789 117.07 190.789 115.41C190.789 113.789 189.559 112.48 187.859 112.48C186.121 112.48 184.812 113.848 184.793 115.43C184.812 116.992 186.062 118.398 187.801 118.398ZM200.086 120.195C196.805 120.195 194.891 117.559 194.891 112.93C194.891 108.34 196.844 105.664 200.086 105.664C203.328 105.664 205.281 108.34 205.281 112.93C205.281 117.559 203.348 120.195 200.086 120.195ZM200.086 118.34C202 118.34 203.133 116.465 203.133 112.93C203.133 109.414 201.98 107.48 200.086 107.48C198.191 107.48 197.039 109.414 197.039 112.93C197.039 116.465 198.172 118.34 200.086 118.34ZM222.898 113.32V114.805H215.945V118.027H214.109V114.805H206.883V113.32H222.898ZM221.121 119.785V121.289H208.875V116.504H210.711V119.785H221.121ZM210.828 104.707V106.836H218.934V104.707H220.789V111.777H208.992V104.707H210.828ZM210.828 110.293H218.934V108.223H210.828V110.293ZM238.094 104.16V111.27H240.633V112.793H238.094V121.66H236.238V104.16H238.094ZM229.461 106.035C229.461 110.41 228.66 114.395 225.496 117.773L224.031 116.738C226.59 114.082 227.518 111.064 227.703 107.559H224.656V106.035H229.461ZM234.285 106.035C234.285 110.469 233.738 115.117 230.516 118.926L229.031 117.91C231.629 114.873 232.41 111.299 232.547 107.559H230.027V106.035H234.285ZM247.918 109.316C247.918 112.246 249.832 115.273 252.527 116.426L251.512 117.871C249.451 116.963 247.811 115.039 247 112.695C246.189 115.195 244.539 117.324 242.508 118.32L241.434 116.855C244.07 115.625 246.023 112.324 246.043 109.316V107.461H242.039V105.918H251.902V107.461H247.918V109.316ZM255.965 104.16V121.66H254.109V104.16H255.965ZM277.801 108.906V110.41H272.547V112.617H279.617V114.102H263.641V112.617H270.691V110.41H265.75V104.512H267.586V108.906H277.801ZM277.645 115.762V121.66H275.77V117.266H265.477V115.762H277.645ZM294.637 104.16V111.484H297.273V113.047H294.637V121.66H292.781V104.16H294.637ZM280.711 116.895C282.088 116.895 283.689 116.895 285.359 116.836V115.059C283.387 114.785 282.098 113.594 282.117 111.895C282.098 109.922 283.797 108.613 286.297 108.613C288.777 108.613 290.496 109.922 290.516 111.895C290.496 113.594 289.188 114.795 287.215 115.078V116.758C288.768 116.699 290.33 116.572 291.785 116.367L291.902 117.734C288.113 118.418 284.012 118.438 281.004 118.438L280.711 116.895ZM291.531 106.23V107.715H281.043V106.23H285.359V104.199H287.215V106.23H291.531ZM286.297 110.059C284.832 110.059 283.855 110.781 283.855 111.895C283.855 113.008 284.832 113.691 286.297 113.691C287.762 113.691 288.738 113.008 288.738 111.895C288.738 110.781 287.762 110.059 286.297 110.059ZM311.844 104.16V111.133H314.559V112.676H311.844V121.641H309.988V104.16H311.844ZM307.273 105.996C307.254 111.055 305.027 115.566 299.266 118.418L298.23 116.973C302.615 114.785 304.998 111.621 305.379 107.539H299.109V105.996H307.273ZM334.012 104.16V111.133H336.727V112.676H334.012V121.641H332.156V104.16H334.012ZM329.441 105.996C329.422 111.055 327.195 115.566 321.434 118.418L320.398 116.973C324.783 114.785 327.166 111.621 327.547 107.539H321.277V105.996H329.441ZM351.805 108.887V110.391H339.793V104.473H341.629V108.887H351.805ZM353.641 112.246V113.77H337.664V112.246H353.641ZM345.633 115.195C349.402 115.195 351.668 116.348 351.668 118.379C351.668 120.43 349.402 121.582 345.633 121.582C341.844 121.582 339.559 120.43 339.559 118.379C339.559 116.348 341.844 115.195 345.633 115.195ZM345.633 116.641C342.957 116.66 341.434 117.246 341.434 118.379C341.434 119.492 342.957 120.156 345.633 120.156C348.27 120.156 349.812 119.492 349.812 118.379C349.812 117.246 348.27 116.66 345.633 116.641ZM363.602 107.051V108.555H354.91V107.051H358.348V104.668H360.184V107.051H363.602ZM359.266 109.609C361.492 109.609 363.055 111.27 363.074 113.633C363.055 116.016 361.492 117.695 359.266 117.695C357.078 117.695 355.457 116.016 355.477 113.633C355.457 111.27 357.078 109.609 359.266 109.609ZM359.266 111.152C357.996 111.152 357.117 112.188 357.117 113.633C357.117 115.117 357.996 116.113 359.266 116.113C360.516 116.113 361.434 115.117 361.434 113.633C361.434 112.188 360.516 111.152 359.266 111.152ZM369.93 104.16V121.66H368.172V112.969H366.16V120.84H364.402V104.551H366.16V111.445H368.172V104.16H369.93ZM388.25 117.93V119.473H372.234V117.93H376.062V113.359C374.627 112.568 373.758 111.309 373.758 109.746C373.758 106.992 376.453 105.176 380.203 105.176C383.973 105.176 386.668 106.992 386.668 109.746C386.668 111.289 385.828 112.529 384.422 113.32V117.93H388.25ZM380.203 106.66C377.449 106.66 375.555 107.852 375.555 109.746C375.555 111.621 377.449 112.852 380.203 112.852C382.938 112.852 384.871 111.621 384.871 109.746C384.871 107.852 382.938 106.66 380.203 106.66ZM377.898 117.93H382.547V114.023C381.834 114.209 381.043 114.297 380.203 114.297C379.383 114.297 378.602 114.209 377.898 114.043V117.93Z" fill="#1B1B1B"/>
<rect width="1.66667" height="11.6925" rx="0.833333" transform="matrix(-0.706993 -0.707221 -0.706993 0.707221 127.611 143.179)" fill="#1B1B1B"/>
<rect width="1.66667" height="7.06019" rx="0.833333" transform="matrix(0.706993 -0.707221 0.706993 0.707221 114.334 146.461)" fill="#1B1B1B"/>
<path d="M150.613 138.531C154.461 138.531 156.863 139.781 156.863 141.891C156.863 143.961 154.461 145.191 150.613 145.191C146.785 145.191 144.363 143.961 144.363 141.891C144.363 139.781 146.785 138.531 150.613 138.531ZM150.613 139.996C147.918 139.996 146.258 140.68 146.277 141.891C146.258 143.062 147.918 143.727 150.613 143.746C153.289 143.727 154.949 143.062 154.949 141.891C154.949 140.68 153.289 139.996 150.613 139.996ZM156.648 149.605V155.445H144.559V149.605H156.648ZM146.395 151.09V153.941H154.852V151.09H146.395ZM158.602 146.539V148.043H142.645V146.539H158.602ZM166.141 140.777C166.141 143.238 167.723 145.426 170.379 146.285L169.363 147.73C167.439 147.037 166.023 145.689 165.262 143.941C164.5 145.943 162.977 147.496 160.867 148.258L159.871 146.773C162.664 145.816 164.285 143.492 164.305 140.855V139.137H166.141V140.777ZM174.52 138.16V148.492H172.664V143.238H168.973V141.715H172.664V138.16H174.52ZM168.66 148.98C172.332 148.98 174.578 150.191 174.578 152.32C174.578 154.43 172.332 155.641 168.66 155.621C164.988 155.641 162.723 154.43 162.742 152.32C162.723 150.191 164.988 148.98 168.66 148.98ZM168.66 150.426C166.102 150.426 164.578 151.109 164.578 152.32C164.578 153.492 166.102 154.156 168.66 154.156C171.219 154.156 172.742 153.492 172.742 152.32C172.742 151.109 171.219 150.426 168.66 150.426ZM193.172 147.301V148.785H177.215V147.301H193.172ZM191.375 153.785V155.289H179.227V150.211H181.102V153.785H191.375ZM185.184 138.746C188.973 138.727 191.434 140.055 191.434 142.242C191.434 144.449 188.973 145.777 185.184 145.797C181.375 145.777 178.934 144.449 178.934 142.242C178.934 140.055 181.375 138.727 185.184 138.746ZM185.184 140.23C182.508 140.23 180.828 140.992 180.848 142.242C180.828 143.531 182.508 144.273 185.184 144.273C187.859 144.273 189.52 143.531 189.52 142.242C189.52 140.992 187.859 140.23 185.184 140.23ZM213.543 142.906V144.41H208.289V146.617H215.359V148.102H199.383V146.617H206.434V144.41H201.492V138.512H203.328V142.906H213.543ZM213.387 149.762V155.66H211.512V151.266H201.219V149.762H213.387ZM224.637 138.531C228.484 138.531 230.887 139.781 230.887 141.891C230.887 143.961 228.484 145.191 224.637 145.191C220.809 145.191 218.387 143.961 218.387 141.891C218.387 139.781 220.809 138.531 224.637 138.531ZM224.637 139.996C221.941 139.996 220.281 140.68 220.301 141.891C220.281 143.062 221.941 143.727 224.637 143.746C227.312 143.727 228.973 143.062 228.973 141.891C228.973 140.68 227.312 139.996 224.637 139.996ZM230.672 149.605V155.445H218.582V149.605H230.672ZM220.418 151.09V153.941H228.875V151.09H220.418ZM232.625 146.539V148.043H216.668V146.539H232.625ZM244.383 145.562V147.086H240.691V150.328C242.312 150.25 243.943 150.143 245.477 149.977L245.613 151.344C241.766 151.93 237.605 151.969 234.285 151.988L234.051 150.445C235.525 150.445 237.156 150.436 238.836 150.387V147.086H235.32V139.781H244.305V141.285H237.156V145.562H244.383ZM248.426 138.16V155.699H246.57V138.16H248.426ZM257.684 143.316C257.684 146.246 259.598 149.273 262.293 150.426L261.277 151.871C259.217 150.963 257.576 149.039 256.766 146.695C255.955 149.195 254.305 151.324 252.273 152.32L251.199 150.855C253.836 149.625 255.789 146.324 255.809 143.316V141.461H251.805V139.918H261.668V141.461H257.684V143.316ZM265.73 138.16V155.66H263.875V138.16H265.73ZM278.27 139.098C280.926 139.098 282.859 140.797 282.859 143.16C282.859 145.543 280.926 147.223 278.27 147.223C275.633 147.223 273.66 145.543 273.68 143.16C273.66 140.797 275.633 139.098 278.27 139.098ZM278.27 140.641C276.688 140.641 275.477 141.676 275.477 143.16C275.477 144.645 276.688 145.699 278.27 145.699C279.871 145.699 281.062 144.645 281.062 143.16C281.062 141.676 279.871 140.641 278.27 140.641ZM287.156 138.16V141.988H289.695V143.531H287.156V146.871H285.301V138.16H287.156ZM276.98 148.688V153.668C278.006 153.619 279.188 153.473 280.301 153.102L280.574 154.566C278.953 155.113 277.371 155.191 276.062 155.191H275.164V148.688H276.98ZM288.797 148.746V150.172H279.969V148.746H283.504V147.32H285.32V148.746H288.797ZM284.383 150.68C286.316 150.68 287.684 151.656 287.684 153.18C287.684 154.684 286.316 155.641 284.383 155.621C282.41 155.641 281.062 154.684 281.082 153.18C281.062 151.656 282.41 150.68 284.383 150.68ZM284.383 152.008C283.406 152.008 282.723 152.457 282.723 153.18C282.723 153.883 283.406 154.332 284.383 154.332C285.34 154.332 286.023 153.883 286.023 153.18C286.023 152.457 285.34 152.008 284.383 152.008ZM295.379 139.469C297.996 139.469 299.852 141.852 299.871 145.602C299.852 149.371 297.996 151.754 295.379 151.754C292.762 151.754 290.887 149.371 290.906 145.602C290.887 141.852 292.762 139.469 295.379 139.469ZM295.379 141.129C293.777 141.129 292.684 142.848 292.684 145.602C292.684 148.375 293.777 150.094 295.379 150.094C297 150.094 298.094 148.375 298.094 145.602C298.094 142.848 297 141.129 295.379 141.129ZM304.324 138.16V145.016H307.137V146.578H304.324V155.66H302.469V138.16H304.324ZM323.992 151.93V153.473H307.977V151.93H311.805V147.359C310.369 146.568 309.5 145.309 309.5 143.746C309.5 140.992 312.195 139.176 315.945 139.176C319.715 139.176 322.41 140.992 322.41 143.746C322.41 145.289 321.57 146.529 320.164 147.32V151.93H323.992ZM315.945 140.66C313.191 140.66 311.297 141.852 311.297 143.746C311.297 145.621 313.191 146.852 315.945 146.852C318.68 146.852 320.613 145.621 320.613 143.746C320.613 141.852 318.68 140.66 315.945 140.66ZM313.641 151.93H318.289V148.023C317.576 148.209 316.785 148.297 315.945 148.297C315.125 148.297 314.344 148.209 313.641 148.043V151.93Z" fill="#1B1B1B"/>
<rect width="1.66667" height="11.6925" rx="0.833333" transform="matrix(-0.706993 -0.707221 -0.706993 0.707221 127.611 177.179)" fill="#1B1B1B"/>
<rect width="1.66667" height="7.06019" rx="0.833333" transform="matrix(0.706993 -0.707221 0.706993 0.707221 114.334 180.461)" fill="#1B1B1B"/>
<path d="M157.137 172.16V189.699H155.281V172.16H157.137ZM147.781 173.469C150.379 173.469 152.293 175.852 152.293 179.602C152.293 183.371 150.379 185.754 147.781 185.754C145.145 185.754 143.25 183.371 143.25 179.602C143.25 175.852 145.145 173.469 147.781 173.469ZM147.781 175.129C146.16 175.129 145.047 176.848 145.047 179.602C145.047 182.375 146.16 184.094 147.781 184.094C149.383 184.094 150.496 182.375 150.496 179.602C150.496 176.848 149.383 175.129 147.781 175.129ZM175.926 182.043V183.566H172V189.758H170.145V183.566H165.75V189.758H163.895V183.566H159.91V182.043H175.926ZM168.895 173.703C168.875 176.047 171.766 178.273 175.164 178.742L174.422 180.266C171.59 179.777 169.07 178.273 167.938 176.203C166.785 178.283 164.285 179.777 161.434 180.266L160.672 178.742C164.09 178.254 166.941 176.066 166.961 173.703V172.746H168.895V173.703ZM196.707 172.16V189.699H194.852V179.973H191.238V178.449H194.852V172.16H196.707ZM188.348 177.082C188.348 180.051 190.203 183.234 192.898 184.426L191.785 185.91C189.764 184.934 188.201 182.893 187.43 180.5C186.648 183.049 185.057 185.227 183.035 186.262L181.902 184.816C184.578 183.547 186.453 180.227 186.473 177.082V175.441H182.605V173.918H192.234V175.441H188.348V177.082ZM205.496 175.383C205.496 177.609 207.039 179.641 209.695 180.48L208.816 181.926C206.824 181.291 205.369 179.973 204.598 178.312C203.836 180.227 202.303 181.74 200.203 182.473L199.246 180.988C201.98 180.09 203.621 177.824 203.641 175.402V174.914H199.793V173.41H209.266V174.914H205.496V175.383ZM213.133 172.16V176.496H215.672V178.02H213.133V182.668H211.277V172.16H213.133ZM207.488 183.098C211.102 183.098 213.289 184.289 213.289 186.34C213.289 188.41 211.102 189.641 207.488 189.621C203.836 189.641 201.609 188.41 201.609 186.34C201.609 184.289 203.836 183.098 207.488 183.098ZM207.488 184.562C204.949 184.562 203.445 185.207 203.465 186.34C203.445 187.512 204.949 188.156 207.488 188.156C210.008 188.156 211.473 187.512 211.473 186.34C211.473 185.207 210.008 184.562 207.488 184.562ZM227.977 176.613C227.957 179.816 229.891 183.02 232.605 184.23L231.492 185.695C229.48 184.738 227.889 182.775 227.078 180.383C226.258 182.941 224.646 185.061 222.547 186.086L221.414 184.523C224.168 183.293 226.102 179.953 226.102 176.613V173.625H227.977V176.613ZM236.043 172.16V189.699H234.188V172.16H236.043ZM252.371 175.051V176.555H243.68V175.051H247.117V172.668H248.953V175.051H252.371ZM248.035 177.609C250.262 177.609 251.824 179.27 251.844 181.633C251.824 184.016 250.262 185.695 248.035 185.695C245.848 185.695 244.227 184.016 244.246 181.633C244.227 179.27 245.848 177.609 248.035 177.609ZM248.035 179.152C246.766 179.152 245.887 180.188 245.887 181.633C245.887 183.117 246.766 184.113 248.035 184.113C249.285 184.113 250.203 183.117 250.203 181.633C250.203 180.188 249.285 179.152 248.035 179.152ZM258.699 172.16V189.66H256.941V180.969H254.93V188.84H253.172V172.551H254.93V179.445H256.941V172.16H258.699ZM274.773 172.16V176.594H277.293V178.117H274.773V182.492H272.898V172.16H274.773ZM269.109 182.824C272.684 182.824 274.91 184.074 274.91 186.223C274.91 188.371 272.684 189.641 269.109 189.621C265.496 189.641 263.23 188.371 263.23 186.223C263.23 184.074 265.496 182.824 269.109 182.824ZM269.109 184.328C266.57 184.309 265.047 185.012 265.066 186.223C265.047 187.434 266.57 188.137 269.109 188.137C271.59 188.137 273.113 187.434 273.133 186.223C273.113 185.012 271.59 184.309 269.109 184.328ZM269.559 173.449V174.953H263.582V179.719C267.029 179.709 268.973 179.602 271.18 179.152L271.355 180.656C269.012 181.145 266.922 181.223 263.133 181.223H261.746V173.449H269.559ZM289.617 177.316C289.617 180.246 291.531 183.273 294.227 184.426L293.211 185.871C291.15 184.963 289.51 183.039 288.699 180.695C287.889 183.195 286.238 185.324 284.207 186.32L283.133 184.855C285.77 183.625 287.723 180.324 287.742 177.316V175.461H283.738V173.918H293.602V175.461H289.617V177.316ZM297.664 172.16V189.66H295.809V172.16H297.664ZM315.047 172.16V182.355H313.191V177.961H309.91V176.418H313.191V172.16H315.047ZM315.047 183.176V189.445H303.504V183.176H315.047ZM305.34 184.641V187.941H313.23V184.641H305.34ZM306.727 175.148C306.727 177.336 308.309 179.504 310.945 180.422L309.988 181.887C308.025 181.193 306.57 179.787 305.809 178.059C305.047 179.982 303.514 181.525 301.434 182.258L300.477 180.793C303.172 179.875 304.832 177.551 304.832 175.148V174.738H301.043V173.215H310.477V174.738H306.727V175.148ZM323.445 173.41C326.219 173.391 328.191 175.109 328.211 177.57C328.191 180.031 326.219 181.75 323.445 181.75C320.691 181.75 318.66 180.031 318.68 177.57C318.66 175.109 320.691 173.391 323.445 173.41ZM323.445 175.012C321.746 175.012 320.496 176.027 320.516 177.57C320.496 179.113 321.746 180.129 323.445 180.129C325.145 180.129 326.395 179.113 326.395 177.57C326.395 176.027 325.145 175.012 323.445 175.012ZM332.215 172.16V189.699H330.359V172.16H332.215ZM317.84 184.387C321.023 184.387 325.438 184.348 329.266 183.801L329.402 185.148C325.438 185.91 321.199 185.93 318.074 185.93L317.84 184.387ZM354.402 172.16V189.699H352.547V172.16H354.402ZM345.047 173.469C347.645 173.469 349.559 175.852 349.559 179.602C349.559 183.371 347.645 185.754 345.047 185.754C342.41 185.754 340.516 183.371 340.516 179.602C340.516 175.852 342.41 173.469 345.047 173.469ZM345.047 175.129C343.426 175.129 342.312 176.848 342.312 179.602C342.312 182.375 343.426 184.094 345.047 184.094C346.648 184.094 347.762 182.375 347.762 179.602C347.762 176.848 346.648 175.129 345.047 175.129ZM366.375 173.84V185.344H358.172V173.84H366.375ZM360.008 175.305V183.84H364.578V175.305H360.008ZM371.688 172.16V189.699H369.832V172.16H371.688ZM380.926 177.316C380.926 180.246 382.84 183.273 385.535 184.426L384.52 185.871C382.459 184.963 380.818 183.039 380.008 180.695C379.197 183.195 377.547 185.324 375.516 186.32L374.441 184.855C377.078 183.625 379.031 180.324 379.051 177.316V175.461H375.047V173.918H384.91V175.461H380.926V177.316ZM388.973 172.16V189.66H387.117V172.16H388.973ZM397.02 173.273C399.715 173.273 401.727 174.973 401.727 177.434C401.727 179.602 400.164 181.174 397.957 181.516V184.289C399.51 184.221 401.062 184.104 402.508 183.918L402.645 185.305C398.953 185.949 394.871 185.969 391.844 185.949L391.551 184.426C392.908 184.416 394.471 184.406 396.102 184.367V181.516C393.836 181.193 392.293 179.611 392.312 177.434C392.293 174.973 394.266 173.273 397.02 173.273ZM397.02 174.836C395.34 174.855 394.109 175.871 394.109 177.434C394.109 178.996 395.34 180.031 397.02 180.012C398.68 180.031 399.891 178.996 399.91 177.434C399.891 175.871 398.68 174.855 397.02 174.836ZM405.418 172.16V179.27H408.113V180.832H405.418V189.66H403.562V172.16H405.418ZM427.684 172.18V176.32H430.223V177.824H427.684V182.023H425.828V172.18H427.684ZM428.094 182.902V184.387H425.77V187.883H428.328V189.387H416.219V187.883H418.738V184.387H416.355V182.902H428.094ZM418.855 173.137C421.531 173.137 423.504 174.836 423.523 177.277C423.504 179.699 421.531 181.398 418.855 181.398C416.18 181.398 414.188 179.699 414.207 177.277C414.188 174.836 416.18 173.137 418.855 173.137ZM418.855 174.699C417.215 174.68 416.004 175.715 416.023 177.277C416.004 178.82 417.215 179.836 418.855 179.855C420.496 179.836 421.707 178.82 421.707 177.277C421.707 175.715 420.496 174.68 418.855 174.699ZM420.535 187.883H423.953V184.387H420.535V187.883ZM445.77 172.18V189.66H443.934V172.18H445.77ZM431.16 181.633C434.598 181.613 438.934 181.594 442.762 181.184L442.859 182.551C441.238 182.785 439.578 182.932 437.957 183.02V189.113H436.102V183.098C434.432 183.166 432.83 183.176 431.375 183.176L431.16 181.633ZM441.512 178.02V179.543H432.781V173.137H441.277V174.621H434.637V178.02H441.512ZM459.363 173.859V188H457.195V176.008H457.117L453.738 178.215V176.164L457.254 173.859H459.363ZM467.879 188.195C464.598 188.195 462.684 185.559 462.684 180.93C462.684 176.34 464.637 173.664 467.879 173.664C471.121 173.664 473.074 176.34 473.074 180.93C473.074 185.559 471.141 188.195 467.879 188.195ZM467.879 186.34C469.793 186.34 470.926 184.465 470.926 180.93C470.926 177.414 469.773 175.48 467.879 175.48C465.984 175.48 464.832 177.414 464.832 180.93C464.832 184.465 465.965 186.34 467.879 186.34ZM490.711 185.988V187.512H474.695V185.988H481.766V182.18H483.602V185.988H490.711ZM489.227 174.816V176.32H483.621C483.699 178.771 486.297 180.803 489.891 181.34L489.188 182.785C486.268 182.326 483.826 180.939 482.684 178.898C481.541 180.939 479.109 182.326 476.18 182.785L475.477 181.34C479.07 180.803 481.648 178.771 481.746 176.32H476.141V174.816H481.766V172.473H483.602V174.816H489.227ZM497.684 173.41C500.457 173.391 502.43 175.109 502.449 177.57C502.43 180.031 500.457 181.75 497.684 181.75C494.93 181.75 492.898 180.031 492.918 177.57C492.898 175.109 494.93 173.391 497.684 173.41ZM497.684 175.012C495.984 175.012 494.734 176.027 494.754 177.57C494.734 179.113 495.984 180.129 497.684 180.129C499.383 180.129 500.633 179.113 500.633 177.57C500.633 176.027 499.383 175.012 497.684 175.012ZM506.453 172.16V189.699H504.598V172.16H506.453ZM492.078 184.387C495.262 184.387 499.676 184.348 503.504 183.801L503.641 185.148C499.676 185.91 495.438 185.93 492.312 185.93L492.078 184.387ZM518.992 173.176C520.447 173.166 521.688 173.713 522.508 174.621H526.883V172.16H528.738V182.492H526.883V180.129H522.488C521.678 181.027 520.438 181.564 518.992 181.555C516.355 181.574 514.402 179.816 514.402 177.375C514.402 174.914 516.355 173.156 518.992 173.176ZM518.992 174.777C517.352 174.758 516.18 175.812 516.18 177.375C516.18 178.898 517.352 179.992 518.992 179.973C520.594 179.992 521.766 178.898 521.766 177.375C521.766 175.812 520.594 174.758 518.992 174.777ZM522.879 182.883C526.512 182.883 528.797 184.113 528.797 186.262C528.797 188.391 526.512 189.641 522.879 189.621C519.227 189.641 516.941 188.391 516.961 186.262C516.941 184.113 519.227 182.883 522.879 182.883ZM522.879 184.309C520.32 184.309 518.758 185.012 518.777 186.262C518.758 187.473 520.32 188.156 522.879 188.156C525.457 188.156 526.98 187.473 526.98 186.262C526.98 185.012 525.457 184.309 522.879 184.309ZM523.348 176.105C523.475 176.496 523.543 176.926 523.543 177.375C523.543 177.805 523.475 178.225 523.367 178.605H526.883V176.105H523.348ZM537.469 174.953C537.469 177.258 539.07 179.387 541.688 180.246L540.691 181.711C538.777 181.037 537.342 179.67 536.59 177.941C535.818 179.904 534.334 181.438 532.293 182.199L531.297 180.715C534.031 179.738 535.613 177.414 535.633 174.797V173.078H537.469V174.953ZM545.184 172.16V176.555H547.723V178.117H545.184V182.727H543.328V172.16H545.184ZM539.539 183.137C543.133 183.137 545.34 184.328 545.34 186.379C545.34 188.449 543.133 189.641 539.539 189.621C535.906 189.641 533.66 188.449 533.66 186.379C533.66 184.328 535.906 183.137 539.539 183.137ZM539.539 184.602C537 184.602 535.496 185.266 535.516 186.379C535.496 187.531 537 188.156 539.539 188.176C542.059 188.156 543.523 187.531 543.523 186.379C543.523 185.266 542.059 184.602 539.539 184.602ZM563.211 172.16V189.699H561.355V172.16H563.211ZM553.855 173.469C556.453 173.469 558.367 175.852 558.367 179.602C558.367 183.371 556.453 185.754 553.855 185.754C551.219 185.754 549.324 183.371 549.324 179.602C549.324 175.852 551.219 173.469 553.855 173.469ZM553.855 175.129C552.234 175.129 551.121 176.848 551.121 179.602C551.121 182.375 552.234 184.094 553.855 184.094C555.457 184.094 556.57 182.375 556.57 179.602C556.57 176.848 555.457 175.129 553.855 175.129ZM585.496 172.16V189.699H583.641V179.973H580.027V178.449H583.641V172.16H585.496ZM577.137 177.082C577.137 180.051 578.992 183.234 581.688 184.426L580.574 185.91C578.553 184.934 576.99 182.893 576.219 180.5C575.438 183.049 573.846 185.227 571.824 186.262L570.691 184.816C573.367 183.547 575.242 180.227 575.262 177.082V175.441H571.395V173.918H581.023V175.441H577.137V177.082ZM594.285 175.383C594.285 177.609 595.828 179.641 598.484 180.48L597.605 181.926C595.613 181.291 594.158 179.973 593.387 178.312C592.625 180.227 591.092 181.74 588.992 182.473L588.035 180.988C590.77 180.09 592.41 177.824 592.43 175.402V174.914H588.582V173.41H598.055V174.914H594.285V175.383ZM601.922 172.16V176.496H604.461V178.02H601.922V182.668H600.066V172.16H601.922ZM596.277 183.098C599.891 183.098 602.078 184.289 602.078 186.34C602.078 188.41 599.891 189.641 596.277 189.621C592.625 189.641 590.398 188.41 590.398 186.34C590.398 184.289 592.625 183.098 596.277 183.098ZM596.277 184.562C593.738 184.562 592.234 185.207 592.254 186.34C592.234 187.512 593.738 188.156 596.277 188.156C598.797 188.156 600.262 187.512 600.262 186.34C600.262 185.207 598.797 184.562 596.277 184.562ZM605.242 184.445C606.316 184.436 607.664 184.426 609.07 184.387V181.066H606.121V173.879H613.602V175.383H607.938V179.562H613.758V181.066H610.848V184.309C612.059 184.26 613.26 184.182 614.305 184.055L614.402 185.402C611.531 185.891 607.84 185.969 605.496 185.988L605.242 184.445ZM620.496 172.16V189.66H618.719V180.852H616.805V188.762H615.086V172.512H616.805V179.348H618.719V172.16H620.496ZM638.758 185.93V187.473H622.742V185.93H626.57V181.359C625.135 180.568 624.266 179.309 624.266 177.746C624.266 174.992 626.961 173.176 630.711 173.176C634.48 173.176 637.176 174.992 637.176 177.746C637.176 179.289 636.336 180.529 634.93 181.32V185.93H638.758ZM630.711 174.66C627.957 174.66 626.062 175.852 626.062 177.746C626.062 179.621 627.957 180.852 630.711 180.852C633.445 180.852 635.379 179.621 635.379 177.746C635.379 175.852 633.445 174.66 630.711 174.66ZM628.406 185.93H633.055V182.023C632.342 182.209 631.551 182.297 630.711 182.297C629.891 182.297 629.109 182.209 628.406 182.043V185.93Z" fill="#1B1B1B"/>
<rect width="1.66667" height="11.6925" rx="0.833333" transform="matrix(-0.706993 -0.707221 -0.706993 0.707221 127.611 223.179)" fill="#1B1B1B"/>
<rect width="1.66667" height="7.06019" rx="0.833333" transform="matrix(0.706993 -0.707221 0.706993 0.707221 114.334 226.461)" fill="#1B1B1B"/>
<path d="M157.137 218.16V235.699H155.281V218.16H157.137ZM147.781 219.469C150.379 219.469 152.293 221.852 152.293 225.602C152.293 229.371 150.379 231.754 147.781 231.754C145.145 231.754 143.25 229.371 143.25 225.602C143.25 221.852 145.145 219.469 147.781 219.469ZM147.781 221.129C146.16 221.129 145.047 222.848 145.047 225.602C145.047 228.375 146.16 230.094 147.781 230.094C149.383 230.094 150.496 228.375 150.496 225.602C150.496 222.848 149.383 221.129 147.781 221.129ZM175.926 228.043V229.566H172V235.758H170.145V229.566H165.75V235.758H163.895V229.566H159.91V228.043H175.926ZM168.895 219.703C168.875 222.047 171.766 224.273 175.164 224.742L174.422 226.266C171.59 225.777 169.07 224.273 167.938 222.203C166.785 224.283 164.285 225.777 161.434 226.266L160.672 224.742C164.09 224.254 166.941 222.066 166.961 219.703V218.746H168.895V219.703ZM196.707 218.16V235.699H194.852V225.973H191.238V224.449H194.852V218.16H196.707ZM188.348 223.082C188.348 226.051 190.203 229.234 192.898 230.426L191.785 231.91C189.764 230.934 188.201 228.893 187.43 226.5C186.648 229.049 185.057 231.227 183.035 232.262L181.902 230.816C184.578 229.547 186.453 226.227 186.473 223.082V221.441H182.605V219.918H192.234V221.441H188.348V223.082ZM205.496 221.383C205.496 223.609 207.039 225.641 209.695 226.48L208.816 227.926C206.824 227.291 205.369 225.973 204.598 224.312C203.836 226.227 202.303 227.74 200.203 228.473L199.246 226.988C201.98 226.09 203.621 223.824 203.641 221.402V220.914H199.793V219.41H209.266V220.914H205.496V221.383ZM213.133 218.16V222.496H215.672V224.02H213.133V228.668H211.277V218.16H213.133ZM207.488 229.098C211.102 229.098 213.289 230.289 213.289 232.34C213.289 234.41 211.102 235.641 207.488 235.621C203.836 235.641 201.609 234.41 201.609 232.34C201.609 230.289 203.836 229.098 207.488 229.098ZM207.488 230.562C204.949 230.562 203.445 231.207 203.465 232.34C203.445 233.512 204.949 234.156 207.488 234.156C210.008 234.156 211.473 233.512 211.473 232.34C211.473 231.207 210.008 230.562 207.488 230.562ZM235.301 218.141V223.219H237.859V224.762H235.301V230.816H233.445V218.141H235.301ZM230.145 219.645V221.148H224.168V226.246C227.576 226.256 229.5 226.148 231.688 225.699L231.902 227.203C229.539 227.672 227.469 227.789 223.719 227.789H222.332V219.645H230.145ZM236.043 233.785V235.289H224.207V229.508H226.062V233.785H236.043ZM254.793 226.91V228.395H247.723V230.23H252.84V235.621H250.965V231.734H240.613V230.23H245.887V228.395H238.836V226.91H254.793ZM247.723 218.102V219.84H253.191V221.305H247.84C248.016 223.043 250.418 224.322 253.914 224.645L253.328 226.031C250.32 225.758 247.879 224.752 246.805 223.102C245.721 224.752 243.279 225.758 240.281 226.031L239.695 224.645C243.172 224.322 245.574 223.043 245.789 221.305H240.438V219.84H245.887V218.102H247.723ZM265.555 219.938C265.555 225.094 263.836 229.742 257.41 232.867L256.414 231.422C259.549 229.898 261.502 228.014 262.605 225.777L256.766 226.324L256.512 224.703L263.191 224.273C263.465 223.385 263.641 222.438 263.719 221.441H257.391V219.938H265.555ZM270.672 218.16V235.66H268.797V218.16H270.672Z" fill="#1B1B1B"/>
<rect x="287" y="205" width="107" height="42" rx="12" fill="#EDFBFB"/>
<path d="M308.016 223.469C307.664 221.652 306.16 220.637 304.363 220.637C301.922 220.637 300.105 222.512 300.105 225.93C300.105 229.367 301.941 231.223 304.363 231.223C306.141 231.223 307.645 230.227 308.016 228.43L310.184 228.449C309.734 231.242 307.449 233.195 304.344 233.195C300.652 233.195 297.977 230.441 297.977 225.93C297.977 221.398 300.672 218.664 304.344 218.664C307.332 218.664 309.695 220.422 310.184 223.469H308.016ZM317.293 222.395V224.055H315.125V229.875C315.125 231.066 315.73 231.281 316.395 231.301C316.688 231.301 317.156 231.262 317.449 231.242V233.059C317.156 233.098 316.707 233.137 316.141 233.137C314.5 233.137 313.035 232.238 313.055 230.305V224.055H311.492V222.395H313.055V219.855H315.125V222.395H317.293ZM319.324 233V222.395H321.336V224.074H321.453C321.844 222.941 322.898 222.238 324.148 222.238C324.402 222.238 324.812 222.258 325.027 222.277V224.27C324.852 224.23 324.363 224.152 323.934 224.152C322.488 224.152 321.414 225.148 321.414 226.535V233H319.324ZM328.68 218.859V233H326.59V218.859H328.68ZM331.648 227.609C331.668 223.938 332.703 220.871 334.539 218.254H336.453C335.105 220.188 333.816 224.133 333.816 227.609C333.816 231.105 335.105 235.031 336.453 236.984H334.539C332.703 234.367 331.668 231.301 331.648 227.609ZM342.684 233.215C339.598 233.215 337.723 230.93 337.723 227.746C337.723 224.504 339.656 222.258 342.645 222.258C345.066 222.258 346.824 223.684 347.039 225.832H345.008C344.793 224.836 343.992 223.996 342.684 223.996C340.965 223.996 339.812 225.422 339.812 227.688C339.812 230.012 340.945 231.438 342.684 231.438C343.855 231.438 344.754 230.793 345.008 229.641H347.039C346.805 231.691 345.184 233.215 342.684 233.215ZM349.012 233V222.395H351.023V224.133H351.141C351.59 222.941 352.625 222.258 354.031 222.258C355.438 222.258 356.434 222.961 356.883 224.133H357C357.508 222.98 358.641 222.258 360.184 222.258C362.098 222.258 363.465 223.469 363.465 225.891V233H361.375V226.086C361.375 224.66 360.477 224.055 359.383 224.055C358.035 224.055 357.273 224.973 357.273 226.242V233H355.203V225.969C355.203 224.816 354.402 224.055 353.27 224.055C352.098 224.055 351.102 225.031 351.102 226.457V233H349.012ZM369.949 233.215C367.391 233.215 365.516 231.145 365.516 227.727C365.516 224.27 367.41 222.258 369.969 222.258C371.941 222.258 372.664 223.449 373.035 224.113H373.133V218.859H375.223V233H373.191V231.34H373.035C372.645 232.043 371.883 233.215 369.949 233.215ZM370.418 231.438C372.195 231.438 373.191 229.914 373.191 227.688C373.191 225.48 372.215 224.035 370.418 224.035C368.562 224.035 367.645 225.598 367.645 227.688C367.645 229.816 368.602 231.438 370.418 231.438ZM382.117 227.609C382.098 231.301 381.062 234.367 379.227 236.984H377.312C378.66 235.031 379.949 231.105 379.949 227.609C379.949 224.133 378.66 220.188 377.312 218.254H379.227C381.062 220.871 382.098 223.938 382.117 227.609Z" fill="#00CCCC"/>
<rect x="415" y="205" width="63" height="42" rx="12" fill="#EDFBFB"/>
<path d="M434.141 222.59C434.004 221.281 432.852 220.52 431.23 220.52C429.492 220.52 428.398 221.398 428.398 222.609C428.398 223.957 429.863 224.465 430.977 224.738L432.344 225.109C434.16 225.539 436.406 226.535 436.426 229.094C436.406 231.477 434.512 233.234 431.172 233.234C428.008 233.234 426.016 231.652 425.879 229.074H428.027C428.164 230.617 429.512 231.359 431.172 231.359C432.969 231.359 434.277 230.441 434.297 229.055C434.277 227.824 433.125 227.316 431.621 226.926L429.941 226.477C427.676 225.852 426.25 224.699 426.25 222.727C426.25 220.285 428.438 218.664 431.289 218.664C434.16 218.664 436.172 220.305 436.23 222.59H434.141ZM440.645 226.711V233H438.555V218.859H440.605V224.133H440.742C441.25 222.98 442.227 222.258 443.887 222.258C446.074 222.258 447.52 223.605 447.52 226.262V233H445.43V226.516C445.43 224.953 444.59 224.055 443.184 224.055C441.719 224.055 440.645 225.012 440.645 226.711ZM450.039 233V222.395H452.129V233H450.039ZM451.094 220.754C450.371 220.754 449.766 220.207 449.766 219.523C449.766 218.84 450.371 218.293 451.094 218.293C451.797 218.293 452.402 218.84 452.402 219.523C452.402 220.207 451.797 220.754 451.094 220.754ZM459.727 222.395V224.055H457.441V233H455.352V224.055H453.711V222.395H455.352V221.164C455.352 219.27 456.562 218.195 458.516 218.195C459.023 218.195 459.531 218.254 459.941 218.332V220.07C459.551 220.012 459.258 219.992 459.062 219.992C457.949 219.992 457.441 220.441 457.441 221.477V222.395H459.727ZM466.582 222.395V224.055H464.414V229.875C464.414 231.066 465.02 231.281 465.684 231.301C465.977 231.301 466.445 231.262 466.738 231.242V233.059C466.445 233.098 465.996 233.137 465.43 233.137C463.789 233.137 462.324 232.238 462.344 230.305V224.055H460.781V222.395H462.344V219.855H464.414V222.395H466.582Z" fill="#00CCCC"/>
<rect x="499" y="205" width="45" height="42" rx="12" fill="#EDFBFB"/>
<path d="M516.445 233V218.859H521.621C524.629 218.859 526.094 220.48 526.094 222.57C526.094 224.328 525.02 225.227 523.711 225.559V225.695C525.117 225.773 526.641 227.004 526.641 229.191C526.641 231.359 525.156 233 521.855 233H516.445ZM521.66 231.164C523.691 231.164 524.512 230.266 524.512 229.094C524.512 227.746 523.438 226.652 521.738 226.652H518.594V231.164H521.66ZM521.445 224.973C522.871 224.973 523.984 224.094 523.984 222.746C523.984 221.574 523.184 220.695 521.484 220.695H518.594V224.973H521.445Z" fill="#00CCCC"/>
<path d="M404.41 232.102V228.371H400.68V226.496H404.41V222.766H406.285V226.496H410.035V228.371H406.285V232.102H404.41Z" fill="#00CCCC"/>
<path d="M487.41 232.102V228.371H483.68V226.496H487.41V222.766H489.285V226.496H493.035V228.371H489.285V232.102H487.41Z" fill="#00CCCC"/>
</g>
<defs>
<filter id="filter0_d_829_3621" x="43" y="30.9219" width="654" height="263.078" filterUnits="userSpaceOnUse" color-interpolation-filters="sRGB">
<feFlood flood-opacity="0" result="BackgroundImageFix"/>
<feColorMatrix in="SourceAlpha" type="matrix" values="0 0 0 0 0 0 0 0 0 0 0 0 0 0 0 0 0 0 127 0" result="hardAlpha"/>
<feOffset dy="4"/>
<feGaussianBlur stdDeviation="11.5"/>
<feComposite in2="hardAlpha" operator="out"/>
<feColorMatrix type="matrix" values="0 0 0 0 0 0 0 0 0 0.8 0 0 0 0 0.8 0 0 0 0.15 0"/>
<feBlend mode="normal" in2="BackgroundImageFix" result="effect1_dropShadow_829_3621"/>
<feBlend mode="normal" in="SourceGraphic" in2="effect1_dropShadow_829_3621" result="shape"/>
</filter>
<clipPath id="clip0_829_3621">
<rect width="739" height="276" fill="white"/>
</clipPath>
</defs>
</svg>
