<svg width="335" height="230" viewBox="0 0 335 230" fill="none" xmlns="http://www.w3.org/2000/svg">
<g filter="url(#filter0_bd_659_4037)">
<path fill-rule="evenodd" clip-rule="evenodd" d="M96.4904 207.275C95.7126 208.242 94.2874 208.242 93.5096 207.275L79.6038 190H32C23.1634 190 16 182.837 16 174V26.0001C16 17.1636 23.1635 10.0001 32 10.0001H303C311.837 10.0001 319 17.1636 319 26.0001V174C319 182.837 311.837 190 303 190H110.396L96.4904 207.275Z" fill="white"/>
</g>
<path d="M54.0003 52.9998C56.7617 52.9998 59.0003 50.7613 59.0003 47.9998C59.0003 45.2384 56.7617 42.9998 54.0003 42.9998C51.2389 42.9998 49.0003 45.2384 49.0003 47.9998C49.0003 50.7613 51.2389 52.9998 54.0003 52.9998Z" fill="#5F6060"/>
<path fill-rule="evenodd" clip-rule="evenodd" d="M62.3337 47.9998C62.3337 52.6022 58.6027 56.3332 54.0003 56.3332C49.398 56.3332 45.667 52.6022 45.667 47.9998C45.667 43.3975 49.398 39.6665 54.0003 39.6665C58.6027 39.6665 62.3337 43.3975 62.3337 47.9998ZM60.667 47.9998C60.667 51.6817 57.6822 54.6665 54.0003 54.6665C50.3184 54.6665 47.3337 51.6817 47.3337 47.9998C47.3337 44.3179 50.3184 41.3332 54.0003 41.3332C57.6822 41.3332 60.667 44.3179 60.667 47.9998Z" fill="#5F6060"/>
<path d="M74.5527 49.5684H76.3164L77.0684 50.5391C77.54 49.9854 77.8066 49.1514 77.8066 48.0508C77.8066 45.9316 76.8086 44.7832 75.2773 44.7832C73.7461 44.7832 72.7344 45.9316 72.7344 48.0508C72.7344 50.1699 73.7461 51.3184 75.2773 51.3184C75.4756 51.3184 75.667 51.2979 75.8516 51.2637L74.5527 49.5684ZM79.8984 48.0508C79.8984 49.8145 79.2969 51.1748 78.3262 52.0293L79.7344 53.8203H77.8066L77.0137 52.8223C76.4805 53.0342 75.8926 53.1367 75.2773 53.1367C72.6387 53.1367 70.6426 51.2637 70.6426 48.0508C70.6426 44.8242 72.6387 42.9648 75.2773 42.9648C77.8887 42.9648 79.8984 44.8242 79.8984 48.0508ZM82.4824 53H80.2676L83.6992 43.1016H86.3379L89.7559 53H87.5547L86.8164 50.7168H83.2344L82.4824 53ZM83.7539 49.1172H86.2969L85.0527 45.3301H84.9844L83.7539 49.1172ZM98.4785 44.6328C98.4785 46.916 99.5176 49.2129 101.623 50.1016L100.598 51.4961C99.1758 50.8535 98.1914 49.6162 97.6309 48.0781C97.0635 49.7529 96.0449 51.1064 94.5273 51.7969L93.4746 50.3477C95.6484 49.4316 96.7012 47.0527 96.7148 44.6328V42.7734H98.4785V44.6328ZM104.057 41.8164V54.2852H102.293V41.8164H104.057ZM112.807 42.541V43.9355H110.332C110.346 45.3916 111.207 46.8818 113.23 47.5312L112.342 48.8848C110.961 48.4404 110.011 47.5518 109.471 46.4375C108.917 47.6543 107.926 48.6182 106.477 49.0898L105.547 47.75C107.604 47.0869 108.541 45.4941 108.568 43.9355H106.025V42.541H112.807ZM115.609 41.8164V44.8379H117.291V46.2871H115.609V49.3223H113.859V41.8164H115.609ZM115.609 49.8555V54.2578H113.859V51.2363H107.229V49.8555H115.609Z" fill="#1B1B1B"/>
<rect width="1.66667" height="11.6925" rx="0.833333" transform="matrix(-0.706993 -0.707221 -0.706993 0.707221 60.6113 88.1787)" fill="#5F6060"/>
<rect width="1.66667" height="7.06019" rx="0.833333" transform="matrix(0.706993 -0.707221 0.706993 0.707221 47.333 91.4609)" fill="#5F6060"/>
<path d="M78.6641 85.9258V95.2637H77.3652V92.7344H75.3965V91.6953H77.3652V90.1777H75.3965V89.1113H77.3652V85.9258H78.6641ZM75.3555 87.3477V88.4004H68.4648V87.3477H71.3359V85.9121H72.6211V87.3477H75.3555ZM71.9648 88.9883C73.6191 88.9883 74.7812 89.9453 74.7949 91.3398C74.7812 92.748 73.6191 93.7051 71.9648 93.7051C70.3105 93.7051 69.1484 92.748 69.1484 91.3398C69.1484 89.9453 70.3105 88.9883 71.9648 88.9883ZM71.9648 90C71.0078 90.0137 70.3652 90.5332 70.3652 91.3398C70.3652 92.1738 71.0078 92.6934 71.9648 92.6934C72.9082 92.6934 73.5645 92.1738 73.5781 91.3398C73.5645 90.5332 72.9082 90.0137 71.9648 90ZM78.9375 96.8496V97.9023H70.666V94.4434H71.9785V96.8496H78.9375ZM91.1328 85.9121V98.1621H89.8887V91.873H88.4258V97.5605H87.1953V86.1445H88.4258V90.7793H89.8887V85.9121H91.1328ZM84.2695 89.1523C84.2695 91.3535 85.1035 93.3496 86.8809 94.2656L86.1152 95.2637C84.9121 94.6143 84.1055 93.4727 83.668 92.0508C83.251 93.6641 82.4375 94.9492 81.1934 95.6875L80.3867 94.7031C82.1777 93.6914 83.0117 91.5859 83.0117 89.1523V88.3594H80.7148V87.3066H86.4023V88.3594H84.2695V89.1523ZM102.562 89.4941V90.5332H94.127V86.3496H95.4121V89.4941H102.562ZM103.848 92.0781V93.1172H92.6367V92.0781H103.848ZM102.645 96.8086V97.875H94.0312V94.2793H95.3301V96.8086H102.645ZM112.912 92.4199V94.5391C114.033 94.4775 115.168 94.3818 116.234 94.2246L116.33 95.1816C113.555 95.6875 110.588 95.7148 108.4 95.7148L108.236 94.6484C109.221 94.6416 110.383 94.6348 111.613 94.5938V92.4199H112.912ZM115.66 87.4707V88.5234H112.912C112.98 89.959 114.143 91.2031 115.975 91.6953L115.373 92.707C113.91 92.29 112.816 91.4014 112.27 90.2324C111.729 91.4629 110.656 92.3926 109.18 92.8164L108.564 91.832C110.39 91.3125 111.538 90.0273 111.6 88.5234H108.893V87.4707H111.613V86.0078H112.912V87.4707H115.66ZM118.299 85.9121V98.1895H117V85.9121H118.299ZM130.781 85.9121V98.1621H129.537V91.832H127.951V97.5332H126.762V86.1582H127.951V90.7656H129.537V85.9121H130.781ZM125.271 87.3887V88.4414H121.977V94.1152C123.48 94.1016 124.615 94.0332 125.928 93.7871L126.023 94.8535C124.547 95.1543 123.289 95.209 121.498 95.2227H120.678V87.3887H125.271ZM145.41 85.9258V89.8633H147.188V90.9434H145.41V95.0859H144.111V85.9258H145.41ZM143.1 87.3477V88.4004H135.799V87.3477H138.807V85.9121H140.105V87.3477H143.1ZM139.449 88.9883C141.213 88.9883 142.416 89.9043 142.416 91.2988C142.416 92.6934 141.213 93.5957 139.449 93.5957C137.672 93.5957 136.469 92.6934 136.469 91.2988C136.469 89.9043 137.672 88.9883 139.449 88.9883ZM139.449 89.9863C138.41 89.9863 137.713 90.4922 137.727 91.2988C137.713 92.0918 138.41 92.584 139.449 92.584C140.488 92.584 141.186 92.0918 141.199 91.2988C141.186 90.4922 140.488 89.9863 139.449 89.9863ZM145.93 96.8496V97.9023H137.645V94.3613H138.943V96.8496H145.93ZM152.383 89.0293C152.369 91.2715 153.723 93.5137 155.623 94.3613L154.844 95.3867C153.436 94.7168 152.321 93.3428 151.754 91.668C151.18 93.459 150.052 94.9424 148.582 95.6602L147.789 94.5664C149.717 93.7051 151.07 91.3672 151.07 89.0293V86.9375H152.383V89.0293ZM158.029 85.9121V98.1895H156.73V85.9121H158.029ZM169.609 85.9121V89.5352H171.387V90.6152H169.609V94.8125H168.297V85.9121H169.609ZM166.287 86.8418C166.287 90.0547 164.1 92.3926 160.518 93.4727L159.971 92.4336C162.835 91.5723 164.619 89.9453 164.879 87.9219H160.49V86.8418H166.287ZM170.115 96.8496V97.9023H161.83V93.8965H163.143V96.8496H170.115ZM181.818 85.9121V90.8887H183.596V91.9551H181.818V98.1621H180.52V85.9121H181.818ZM175.775 87.2246C175.775 90.2871 175.215 93.0762 173 95.4414L171.975 94.7168C173.766 92.8574 174.415 90.7451 174.545 88.291H172.412V87.2246H175.775ZM179.152 87.2246C179.152 90.3281 178.77 93.582 176.514 96.248L175.475 95.5371C177.293 93.4111 177.84 90.9092 177.936 88.291H176.172V87.2246H179.152ZM188.695 89.5215C188.695 91.5723 190.035 93.6914 191.922 94.498L191.211 95.5098C189.769 94.874 188.62 93.5273 188.053 91.8867C187.485 93.6367 186.33 95.127 184.908 95.8242L184.156 94.7988C186.002 93.9375 187.369 91.627 187.383 89.5215V88.2227H184.58V87.1426H191.484V88.2227H188.695V89.5215ZM194.328 85.9121V98.1621H193.029V85.9121H194.328ZM209.613 89.2344V90.2871H205.936V91.832H210.885V92.8711H199.701V91.832H204.637V90.2871H201.178V86.1582H202.463V89.2344H209.613ZM209.504 94.0332V98.1621H208.191V95.0859H200.986V94.0332H209.504ZM221.398 85.9121V91.0391H223.244V92.1328H221.398V98.1621H220.1V85.9121H221.398ZM211.65 94.8262C212.614 94.8262 213.735 94.8262 214.904 94.7852V93.541C213.523 93.3496 212.621 92.5156 212.635 91.3262C212.621 89.9453 213.811 89.0293 215.561 89.0293C217.297 89.0293 218.5 89.9453 218.514 91.3262C218.5 92.5156 217.584 93.3564 216.203 93.5547V94.7305C217.29 94.6895 218.384 94.6006 219.402 94.457L219.484 95.4141C216.832 95.8926 213.961 95.9062 211.855 95.9062L211.65 94.8262ZM219.225 87.3613V88.4004H211.883V87.3613H214.904V85.9395H216.203V87.3613H219.225ZM215.561 90.041C214.535 90.041 213.852 90.5469 213.852 91.3262C213.852 92.1055 214.535 92.584 215.561 92.584C216.586 92.584 217.27 92.1055 217.27 91.3262C217.27 90.5469 216.586 90.041 215.561 90.041ZM233.443 85.9121V90.793H235.344V91.873H233.443V98.1484H232.145V85.9121H233.443ZM230.244 87.1973C230.23 90.7383 228.672 93.8965 224.639 95.8926L223.914 94.8809C226.983 93.3496 228.651 91.1348 228.918 88.2773H224.529V87.1973H230.244ZM248.961 85.9121V90.793H250.861V91.873H248.961V98.1484H247.662V85.9121H248.961ZM245.762 87.1973C245.748 90.7383 244.189 93.8965 240.156 95.8926L239.432 94.8809C242.501 93.3496 244.169 91.1348 244.436 88.2773H240.047V87.1973H245.762ZM261.416 89.2207V90.2734H253.008V86.1309H254.293V89.2207H261.416ZM262.701 91.5723V92.6387H251.518V91.5723H262.701ZM257.096 93.6367C259.734 93.6367 261.32 94.4434 261.32 95.8652C261.32 97.3008 259.734 98.1074 257.096 98.1074C254.443 98.1074 252.844 97.3008 252.844 95.8652C252.844 94.4434 254.443 93.6367 257.096 93.6367ZM257.096 94.6484C255.223 94.6621 254.156 95.0723 254.156 95.8652C254.156 96.6445 255.223 97.1094 257.096 97.1094C258.941 97.1094 260.021 96.6445 260.021 95.8652C260.021 95.0723 258.941 94.6621 257.096 94.6484ZM269.674 87.9355V88.9883H263.59V87.9355H265.996V86.2676H267.281V87.9355H269.674ZM266.639 89.7266C268.197 89.7266 269.291 90.8887 269.305 92.543C269.291 94.2109 268.197 95.3867 266.639 95.3867C265.107 95.3867 263.973 94.2109 263.986 92.543C263.973 90.8887 265.107 89.7266 266.639 89.7266ZM266.639 90.8066C265.75 90.8066 265.135 91.5312 265.135 92.543C265.135 93.582 265.75 94.2793 266.639 94.2793C267.514 94.2793 268.156 93.582 268.156 92.543C268.156 91.5312 267.514 90.8066 266.639 90.8066ZM274.104 85.9121V98.1621H272.873V92.0781H271.465V97.5879H270.234V86.1855H271.465V91.0117H272.873V85.9121H274.104ZM286.928 95.5508V96.6309H275.717V95.5508H278.396V92.3516C277.392 91.7979 276.783 90.916 276.783 89.8223C276.783 87.8945 278.67 86.623 281.295 86.623C283.934 86.623 285.82 87.8945 285.82 89.8223C285.82 90.9023 285.232 91.7705 284.248 92.3242V95.5508H286.928ZM281.295 87.6621C279.367 87.6621 278.041 88.4961 278.041 89.8223C278.041 91.1348 279.367 91.9961 281.295 91.9961C283.209 91.9961 284.562 91.1348 284.562 89.8223C284.562 88.4961 283.209 87.6621 281.295 87.6621ZM279.682 95.5508H282.936V92.8164C282.437 92.9463 281.883 93.0078 281.295 93.0078C280.721 93.0078 280.174 92.9463 279.682 92.8301V95.5508Z" fill="#5F6060"/>
<path d="M78.9648 109.912V122.162H77.7207V109.912H78.9648ZM76.4766 110.172V121.547H75.2461V115.312H73.3457V114.246H75.2461V110.172H76.4766ZM72.1426 113.33C72.1426 115.422 72.9902 117.514 74.7129 118.512L73.9336 119.469C72.7646 118.771 71.958 117.534 71.541 116.051C71.0967 117.65 70.2627 119.011 69.0664 119.756L68.2734 118.785C70.0098 117.732 70.8984 115.504 70.8984 113.33V112.346H68.6426V111.293H74.248V112.346H72.1426V113.33ZM90.1758 109.926V113.863H91.9531V114.943H90.1758V119.086H88.877V109.926H90.1758ZM87.8652 111.348V112.4H80.5645V111.348H83.5723V109.912H84.8711V111.348H87.8652ZM84.2148 112.988C85.9785 112.988 87.1816 113.904 87.1816 115.299C87.1816 116.693 85.9785 117.596 84.2148 117.596C82.4375 117.596 81.2344 116.693 81.2344 115.299C81.2344 113.904 82.4375 112.988 84.2148 112.988ZM84.2148 113.986C83.1758 113.986 82.4785 114.492 82.4922 115.299C82.4785 116.092 83.1758 116.584 84.2148 116.584C85.2539 116.584 85.9512 116.092 85.9648 115.299C85.9512 114.492 85.2539 113.986 84.2148 113.986ZM90.6953 120.85V121.902H82.4102V118.361H83.709V120.85H90.6953ZM100.566 113.029C100.553 115.271 101.906 117.514 103.807 118.361L103.027 119.387C101.619 118.717 100.505 117.343 99.9375 115.668C99.3633 117.459 98.2354 118.942 96.7656 119.66L95.9727 118.566C97.9004 117.705 99.2539 115.367 99.2539 113.029V110.938H100.566V113.029ZM106.213 109.912V122.189H104.914V109.912H106.213ZM117.793 109.912V113.535H119.57V114.615H117.793V118.812H116.48V109.912H117.793ZM114.471 110.842C114.471 114.055 112.283 116.393 108.701 117.473L108.154 116.434C111.019 115.572 112.803 113.945 113.062 111.922H108.674V110.842H114.471ZM118.299 120.85V121.902H110.014V117.896H111.326V120.85H118.299ZM131.438 116.311V117.35H120.268V116.311H131.438ZM130.18 120.85V121.902H121.676V118.348H122.988V120.85H130.18ZM125.846 110.322C128.498 110.309 130.221 111.238 130.221 112.77C130.221 114.314 128.498 115.244 125.846 115.258C123.18 115.244 121.471 114.314 121.471 112.77C121.471 111.238 123.18 110.309 125.846 110.322ZM125.846 111.361C123.973 111.361 122.797 111.895 122.811 112.77C122.797 113.672 123.973 114.191 125.846 114.191C127.719 114.191 128.881 113.672 128.881 112.77C128.881 111.895 127.719 111.361 125.846 111.361ZM146.955 117.295V118.361H142.006V122.176H140.721V118.361H135.785V117.295H146.955ZM145.889 111.389V112.441H142.02C142.095 113.795 143.94 115.114 146.271 115.408L145.807 116.447C143.838 116.174 142.163 115.251 141.377 114C140.577 115.265 138.889 116.174 136.92 116.447L136.441 115.408C138.772 115.114 140.632 113.822 140.721 112.441H136.838V111.389H140.721V109.912H142.006V111.389H145.889ZM158.426 111.266V112.332H148.459V111.266H152.82V109.857H154.105V111.266H158.426ZM159.096 117.842V118.908H154.105V122.176H152.82V118.908H147.885V117.842H159.096ZM153.463 112.961C156.006 112.961 157.537 113.686 157.537 115.025C157.537 116.338 156.006 117.062 153.463 117.076C150.906 117.062 149.375 116.338 149.389 115.025C149.375 113.686 150.906 112.961 153.463 112.961ZM153.463 113.932C151.699 113.932 150.729 114.314 150.729 115.025C150.729 115.709 151.699 116.092 153.463 116.092C155.213 116.092 156.184 115.709 156.197 115.025C156.184 114.314 155.213 113.932 153.463 113.932ZM169.623 111.047V112.127H165.316V118.102C167.367 118.095 168.782 118.02 170.389 117.705L170.539 118.771C168.775 119.1 167.285 119.182 164.975 119.182H164.004V111.047H169.623ZM173.629 109.912V122.189H172.33V115.367H168.926V114.287H172.33V109.912H173.629ZM188.805 112.701V113.754H180.396V110.09H181.668V112.701H188.805ZM190.117 114.834V115.873H178.906V114.834H190.117ZM188.709 116.857V119.852H181.6V120.986H189.133V122.012H180.301V118.895H187.424V117.869H180.273V116.857H188.709ZM194.342 110.828C196.003 110.828 197.22 112.236 197.418 114.506H199.947V109.912H201.232V122.189H199.947V115.559H197.432C197.288 117.944 196.044 119.428 194.342 119.428C192.51 119.428 191.225 117.76 191.238 115.121C191.225 112.496 192.51 110.828 194.342 110.828ZM194.342 111.99C193.234 111.99 192.469 113.193 192.469 115.121C192.469 117.062 193.234 118.266 194.342 118.266C195.449 118.266 196.215 117.062 196.215 115.121C196.215 113.193 195.449 111.99 194.342 111.99ZM212.744 109.912V112.373H214.521V113.467H212.744V116.051H211.445V109.912H212.744ZM204.979 110.459V114.451C206.626 114.438 208.362 114.308 210.242 113.932L210.406 115.012C208.342 115.422 206.482 115.545 204.678 115.545H203.68V110.459H204.979ZM212.744 116.611V119.729H206.141V120.959H213.168V122.012H204.855V118.73H211.445V117.637H204.828V116.611H212.744ZM229.178 109.912V122.162H227.934V109.912H229.178ZM226.717 110.145V121.561H225.486V117.609H223.709C223.271 118.826 222.458 119.53 221.412 119.523C219.812 119.537 218.773 117.855 218.773 115.203C218.773 112.551 219.812 110.883 221.412 110.896C222.458 110.89 223.265 111.587 223.709 112.797H225.486V110.145H226.717ZM221.412 112.113C220.51 112.113 219.963 113.248 219.963 115.203C219.963 117.158 220.51 118.293 221.412 118.293C222.314 118.293 222.889 117.158 222.889 115.203C222.889 113.248 222.314 112.113 221.412 112.113ZM223.982 113.85C224.044 114.267 224.078 114.718 224.078 115.203C224.078 115.682 224.044 116.133 223.982 116.543H225.486V113.85H223.982ZM240.949 109.912V117.199H239.65V114.096H237.367V113.029H239.65V109.912H240.949ZM236.848 117.541C239.418 117.541 240.99 118.389 240.99 119.852C240.99 121.314 239.418 122.148 236.848 122.162C234.277 122.148 232.691 121.314 232.705 119.852C232.691 118.389 234.277 117.541 236.848 117.541ZM236.848 118.553C235.057 118.553 233.99 119.018 233.99 119.852C233.99 120.672 235.057 121.15 236.848 121.137C238.639 121.15 239.705 120.672 239.705 119.852C239.705 119.018 238.639 118.553 236.848 118.553ZM235.125 112.072C235.125 113.631 236.232 115.135 238.078 115.764L237.408 116.789C236.034 116.311 235.022 115.333 234.496 114.123C233.956 115.497 232.883 116.598 231.42 117.131L230.736 116.092C232.637 115.436 233.799 113.781 233.799 112.086V111.812H231.146V110.76H237.75V111.812H235.125V112.072ZM252.98 109.912V122.189H251.682V109.912H252.98ZM246.432 110.828C248.25 110.828 249.59 112.496 249.59 115.121C249.59 117.76 248.25 119.428 246.432 119.428C244.586 119.428 243.26 117.76 243.26 115.121C243.26 112.496 244.586 110.828 246.432 110.828ZM246.432 111.99C245.297 111.99 244.518 113.193 244.518 115.121C244.518 117.062 245.297 118.266 246.432 118.266C247.553 118.266 248.332 117.062 248.332 115.121C248.332 113.193 247.553 111.99 246.432 111.99ZM265.477 109.912V122.162H264.232V109.912H265.477ZM262.988 110.145V121.561H261.744V115.654H260.363C260.254 118.047 259.229 119.537 257.711 119.523C256.111 119.537 255.072 117.855 255.072 115.203C255.072 112.551 256.111 110.883 257.711 110.896C259.201 110.883 260.213 112.298 260.363 114.602H261.744V110.145H262.988ZM257.711 112.113C256.822 112.113 256.275 113.248 256.275 115.203C256.275 117.158 256.822 118.293 257.711 118.293C258.613 118.293 259.174 117.158 259.174 115.203C259.174 113.248 258.613 112.113 257.711 112.113ZM278.246 119.551V120.631H267.035V119.551H269.715V116.352C268.71 115.798 268.102 114.916 268.102 113.822C268.102 111.895 269.988 110.623 272.613 110.623C275.252 110.623 277.139 111.895 277.139 113.822C277.139 114.902 276.551 115.771 275.566 116.324V119.551H278.246ZM272.613 111.662C270.686 111.662 269.359 112.496 269.359 113.822C269.359 115.135 270.686 115.996 272.613 115.996C274.527 115.996 275.881 115.135 275.881 113.822C275.881 112.496 274.527 111.662 272.613 111.662ZM271 119.551H274.254V116.816C273.755 116.946 273.201 117.008 272.613 117.008C272.039 117.008 271.492 116.946 271 116.83V119.551ZM283.947 121.096C283.414 121.096 282.963 120.658 282.977 120.125C282.963 119.592 283.414 119.154 283.947 119.154C284.467 119.154 284.918 119.592 284.918 120.125C284.918 120.658 284.467 121.096 283.947 121.096ZM283.947 115.695C283.414 115.695 282.963 115.258 282.977 114.725C282.963 114.191 283.414 113.754 283.947 113.754C284.467 113.754 284.918 114.191 284.918 114.725C284.918 115.258 284.467 115.695 283.947 115.695ZM289.607 117.227C289.594 119.811 288.869 121.957 287.584 123.789H286.244C287.188 122.422 288.09 119.674 288.09 117.227C288.09 114.793 287.188 112.031 286.244 110.678H287.584C288.869 112.51 289.594 114.656 289.607 117.227Z" fill="#959797"/>
<rect width="1.66667" height="11.6925" rx="0.833333" transform="matrix(-0.706993 -0.707221 -0.706993 0.707221 60.6113 140.179)" fill="#5F6060"/>
<rect width="1.66667" height="7.06019" rx="0.833333" transform="matrix(0.706993 -0.707221 0.706993 0.707221 47.333 143.461)" fill="#5F6060"/>
<path d="M74.0293 138.172C76.7227 138.172 78.4043 139.047 78.4043 140.523C78.4043 141.973 76.7227 142.834 74.0293 142.834C71.3496 142.834 69.6543 141.973 69.6543 140.523C69.6543 139.047 71.3496 138.172 74.0293 138.172ZM74.0293 139.197C72.1426 139.197 70.9805 139.676 70.9941 140.523C70.9805 141.344 72.1426 141.809 74.0293 141.822C75.9023 141.809 77.0645 141.344 77.0645 140.523C77.0645 139.676 75.9023 139.197 74.0293 139.197ZM78.2539 145.924V150.012H69.791V145.924H78.2539ZM71.0762 146.963V148.959H76.9961V146.963H71.0762ZM79.6211 143.777V144.83H68.4512V143.777H79.6211ZM84.8984 139.744C84.8984 141.467 86.0059 142.998 87.8652 143.6L87.1543 144.611C85.8076 144.126 84.8164 143.183 84.2832 141.959C83.75 143.36 82.6836 144.447 81.207 144.98L80.5098 143.941C82.4648 143.271 83.5996 141.645 83.6133 139.799V138.596H84.8984V139.744ZM90.7637 137.912V145.145H89.4648V141.467H86.8809V140.4H89.4648V137.912H90.7637ZM86.6621 145.486C89.2324 145.486 90.8047 146.334 90.8047 147.824C90.8047 149.301 89.2324 150.148 86.6621 150.135C84.0918 150.148 82.5059 149.301 82.5195 147.824C82.5059 146.334 84.0918 145.486 86.6621 145.486ZM86.6621 146.498C84.8711 146.498 83.8047 146.977 83.8047 147.824C83.8047 148.645 84.8711 149.109 86.6621 149.109C88.4531 149.109 89.5195 148.645 89.5195 147.824C89.5195 146.977 88.4531 146.498 86.6621 146.498ZM103.82 144.311V145.35H92.6504V144.311H103.82ZM102.562 148.85V149.902H94.0586V146.348H95.3711V148.85H102.562ZM98.2285 138.322C100.881 138.309 102.604 139.238 102.604 140.77C102.604 142.314 100.881 143.244 98.2285 143.258C95.5625 143.244 93.8535 142.314 93.8535 140.77C93.8535 139.238 95.5625 138.309 98.2285 138.322ZM98.2285 139.361C96.3555 139.361 95.1797 139.895 95.1934 140.77C95.1797 141.672 96.3555 142.191 98.2285 142.191C100.102 142.191 101.264 141.672 101.264 140.77C101.264 139.895 100.102 139.361 98.2285 139.361ZM118.08 141.234V142.287H114.402V143.832H119.352V144.871H108.168V143.832H113.104V142.287H109.645V138.158H110.93V141.234H118.08ZM117.971 146.033V150.162H116.658V147.086H109.453V146.033H117.971ZM125.846 138.172C128.539 138.172 130.221 139.047 130.221 140.523C130.221 141.973 128.539 142.834 125.846 142.834C123.166 142.834 121.471 141.973 121.471 140.523C121.471 139.047 123.166 138.172 125.846 138.172ZM125.846 139.197C123.959 139.197 122.797 139.676 122.811 140.523C122.797 141.344 123.959 141.809 125.846 141.822C127.719 141.809 128.881 141.344 128.881 140.523C128.881 139.676 127.719 139.197 125.846 139.197ZM130.07 145.924V150.012H121.607V145.924H130.07ZM122.893 146.963V148.959H128.812V146.963H122.893ZM131.438 143.777V144.83H120.268V143.777H131.438ZM139.668 143.094V144.16H137.084V146.43C138.219 146.375 139.36 146.3 140.434 146.184L140.529 147.141C137.836 147.551 134.924 147.578 132.6 147.592L132.436 146.512C133.468 146.512 134.609 146.505 135.785 146.471V144.16H133.324V139.047H139.613V140.1H134.609V143.094H139.668ZM142.498 137.912V150.189H141.199V137.912H142.498ZM148.979 141.521C148.979 143.572 150.318 145.691 152.205 146.498L151.494 147.51C150.052 146.874 148.903 145.527 148.336 143.887C147.769 145.637 146.613 147.127 145.191 147.824L144.439 146.799C146.285 145.938 147.652 143.627 147.666 141.521V140.223H144.863V139.143H151.768V140.223H148.979V141.521ZM154.611 137.912V150.162H153.312V137.912H154.611ZM163.389 138.568C165.248 138.568 166.602 139.758 166.602 141.412C166.602 143.08 165.248 144.256 163.389 144.256C161.543 144.256 160.162 143.08 160.176 141.412C160.162 139.758 161.543 138.568 163.389 138.568ZM163.389 139.648C162.281 139.648 161.434 140.373 161.434 141.412C161.434 142.451 162.281 143.189 163.389 143.189C164.51 143.189 165.344 142.451 165.344 141.412C165.344 140.373 164.51 139.648 163.389 139.648ZM169.609 137.912V140.592H171.387V141.672H169.609V144.01H168.311V137.912H169.609ZM162.486 145.281V148.768C163.204 148.733 164.031 148.631 164.811 148.371L165.002 149.396C163.867 149.779 162.76 149.834 161.844 149.834H161.215V145.281H162.486ZM170.758 145.322V146.32H164.578V145.322H167.053V144.324H168.324V145.322H170.758ZM167.668 146.676C169.021 146.676 169.979 147.359 169.979 148.426C169.979 149.479 169.021 150.148 167.668 150.135C166.287 150.148 165.344 149.479 165.357 148.426C165.344 147.359 166.287 146.676 167.668 146.676ZM167.668 147.605C166.984 147.605 166.506 147.92 166.506 148.426C166.506 148.918 166.984 149.232 167.668 149.232C168.338 149.232 168.816 148.918 168.816 148.426C168.816 147.92 168.338 147.605 167.668 147.605ZM175.365 138.828C177.197 138.828 178.496 140.496 178.51 143.121C178.496 145.76 177.197 147.428 175.365 147.428C173.533 147.428 172.221 145.76 172.234 143.121C172.221 140.496 173.533 138.828 175.365 138.828ZM175.365 139.99C174.244 139.99 173.479 141.193 173.479 143.121C173.479 145.062 174.244 146.266 175.365 146.266C176.5 146.266 177.266 145.062 177.266 143.121C177.266 141.193 176.5 139.99 175.365 139.99ZM181.627 137.912V142.711H183.596V143.805H181.627V150.162H180.328V137.912H181.627ZM195.395 147.551V148.631H184.184V147.551H186.863V144.352C185.858 143.798 185.25 142.916 185.25 141.822C185.25 139.895 187.137 138.623 189.762 138.623C192.4 138.623 194.287 139.895 194.287 141.822C194.287 142.902 193.699 143.771 192.715 144.324V147.551H195.395ZM189.762 139.662C187.834 139.662 186.508 140.496 186.508 141.822C186.508 143.135 187.834 143.996 189.762 143.996C191.676 143.996 193.029 143.135 193.029 141.822C193.029 140.496 191.676 139.662 189.762 139.662ZM188.148 147.551H191.402V144.816C190.903 144.946 190.35 145.008 189.762 145.008C189.188 145.008 188.641 144.946 188.148 144.83V147.551Z" fill="#5F6060"/>
<defs>
<filter id="filter0_bd_659_4037" x="0" y="-2" width="335" height="232" filterUnits="userSpaceOnUse" color-interpolation-filters="sRGB">
<feFlood flood-opacity="0" result="BackgroundImageFix"/>
<feGaussianBlur in="BackgroundImageFix" stdDeviation="6"/>
<feComposite in2="SourceAlpha" operator="in" result="effect1_backgroundBlur_659_4037"/>
<feColorMatrix in="SourceAlpha" type="matrix" values="0 0 0 0 0 0 0 0 0 0 0 0 0 0 0 0 0 0 127 0" result="hardAlpha"/>
<feOffset dy="6"/>
<feGaussianBlur stdDeviation="8"/>
<feComposite in2="hardAlpha" operator="out"/>
<feColorMatrix type="matrix" values="0 0 0 0 0 0 0 0 0 0 0 0 0 0 0 0 0 0 0.2 0"/>
<feBlend mode="normal" in2="effect1_backgroundBlur_659_4037" result="effect2_dropShadow_659_4037"/>
<feBlend mode="normal" in="SourceGraphic" in2="effect2_dropShadow_659_4037" result="shape"/>
</filter>
</defs>
</svg>
